<?xml version="1.0" encoding="UTF-8"?>
<svg xmlns="http://www.w3.org/2000/svg" xmlns:xlink="http://www.w3.org/1999/xlink" width="468.48" height="248.4" viewBox="0 0 468.48 248.4">
<defs>
<g>
<g id="glyph-0-0">
<path d="M 0.4375 -2.796875 L 2.125 -2.953125 C 2.226562 -2.390625 2.429688 -1.972656 2.734375 -1.703125 C 3.046875 -1.441406 3.46875 -1.3125 4 -1.3125 C 4.550781 -1.3125 4.96875 -1.425781 5.25 -1.65625 C 5.539062 -1.894531 5.6875 -2.175781 5.6875 -2.5 C 5.6875 -2.695312 5.625 -2.867188 5.5 -3.015625 C 5.382812 -3.160156 5.175781 -3.285156 4.875 -3.390625 C 4.675781 -3.460938 4.21875 -3.585938 3.5 -3.765625 C 2.5625 -3.992188 1.90625 -4.273438 1.53125 -4.609375 C 1.007812 -5.085938 0.75 -5.664062 0.75 -6.34375 C 0.75 -6.78125 0.867188 -7.1875 1.109375 -7.5625 C 1.359375 -7.945312 1.71875 -8.238281 2.1875 -8.4375 C 2.65625 -8.632812 3.21875 -8.734375 3.875 -8.734375 C 4.957031 -8.734375 5.769531 -8.492188 6.3125 -8.015625 C 6.851562 -7.546875 7.140625 -6.921875 7.171875 -6.140625 L 5.4375 -6.0625 C 5.363281 -6.5 5.203125 -6.8125 4.953125 -7 C 4.710938 -7.195312 4.347656 -7.296875 3.859375 -7.296875 C 3.359375 -7.296875 2.960938 -7.191406 2.671875 -6.984375 C 2.492188 -6.859375 2.40625 -6.679688 2.40625 -6.453125 C 2.40625 -6.253906 2.488281 -6.082031 2.65625 -5.9375 C 2.875 -5.75 3.40625 -5.554688 4.25 -5.359375 C 5.09375 -5.160156 5.71875 -4.953125 6.125 -4.734375 C 6.53125 -4.523438 6.847656 -4.234375 7.078125 -3.859375 C 7.304688 -3.492188 7.421875 -3.039062 7.421875 -2.5 C 7.421875 -2.007812 7.28125 -1.546875 7 -1.109375 C 6.726562 -0.679688 6.34375 -0.363281 5.84375 -0.15625 C 5.34375 0.0507812 4.722656 0.15625 3.984375 0.15625 C 2.890625 0.15625 2.050781 -0.09375 1.46875 -0.59375 C 0.894531 -1.101562 0.550781 -1.835938 0.4375 -2.796875 Z M 0.4375 -2.796875 "/>
</g>
<g id="glyph-0-1">
<path d="M 0.8125 -6.21875 L 2.34375 -6.21875 L 2.34375 -5.3125 C 2.550781 -5.625 2.820312 -5.875 3.15625 -6.0625 C 3.5 -6.257812 3.878906 -6.359375 4.296875 -6.359375 C 5.015625 -6.359375 5.625 -6.078125 6.125 -5.515625 C 6.632812 -4.953125 6.890625 -4.160156 6.890625 -3.140625 C 6.890625 -2.109375 6.632812 -1.300781 6.125 -0.71875 C 5.613281 -0.144531 5 0.140625 4.28125 0.140625 C 3.9375 0.140625 3.625 0.0703125 3.34375 -0.0625 C 3.0625 -0.195312 2.769531 -0.429688 2.46875 -0.765625 L 2.46875 2.375 L 0.8125 2.375 Z M 2.4375 -3.21875 C 2.4375 -2.519531 2.578125 -2.003906 2.859375 -1.671875 C 3.140625 -1.335938 3.476562 -1.171875 3.875 -1.171875 C 4.257812 -1.171875 4.578125 -1.320312 4.828125 -1.625 C 5.078125 -1.9375 5.203125 -2.441406 5.203125 -3.140625 C 5.203125 -3.785156 5.070312 -4.265625 4.8125 -4.578125 C 4.550781 -4.898438 4.226562 -5.0625 3.84375 -5.0625 C 3.4375 -5.0625 3.097656 -4.90625 2.828125 -4.59375 C 2.566406 -4.28125 2.4375 -3.820312 2.4375 -3.21875 Z M 2.4375 -3.21875 "/>
</g>
<g id="glyph-0-2">
<path d="M 2.09375 -4.328125 L 0.59375 -4.59375 C 0.757812 -5.195312 1.046875 -5.640625 1.453125 -5.921875 C 1.867188 -6.210938 2.484375 -6.359375 3.296875 -6.359375 C 4.023438 -6.359375 4.566406 -6.269531 4.921875 -6.09375 C 5.285156 -5.925781 5.539062 -5.707031 5.6875 -5.4375 C 5.832031 -5.175781 5.90625 -4.6875 5.90625 -3.96875 L 5.890625 -2.046875 C 5.890625 -1.492188 5.914062 -1.085938 5.96875 -0.828125 C 6.019531 -0.578125 6.117188 -0.300781 6.265625 0 L 4.640625 0 C 4.597656 -0.113281 4.546875 -0.273438 4.484375 -0.484375 C 4.453125 -0.585938 4.429688 -0.65625 4.421875 -0.6875 C 4.140625 -0.40625 3.835938 -0.195312 3.515625 -0.0625 C 3.203125 0.0703125 2.863281 0.140625 2.5 0.140625 C 1.851562 0.140625 1.34375 -0.03125 0.96875 -0.375 C 0.601562 -0.726562 0.421875 -1.171875 0.421875 -1.703125 C 0.421875 -2.054688 0.503906 -2.367188 0.671875 -2.640625 C 0.847656 -2.910156 1.085938 -3.117188 1.390625 -3.265625 C 1.691406 -3.421875 2.128906 -3.550781 2.703125 -3.65625 C 3.460938 -3.800781 3.992188 -3.9375 4.296875 -4.0625 L 4.296875 -4.21875 C 4.296875 -4.539062 4.21875 -4.769531 4.0625 -4.90625 C 3.90625 -5.039062 3.609375 -5.109375 3.171875 -5.109375 C 2.878906 -5.109375 2.648438 -5.050781 2.484375 -4.9375 C 2.328125 -4.820312 2.195312 -4.617188 2.09375 -4.328125 Z M 4.296875 -2.984375 C 4.085938 -2.921875 3.753906 -2.835938 3.296875 -2.734375 C 2.835938 -2.640625 2.535156 -2.546875 2.390625 -2.453125 C 2.179688 -2.296875 2.078125 -2.101562 2.078125 -1.875 C 2.078125 -1.644531 2.160156 -1.441406 2.328125 -1.265625 C 2.503906 -1.097656 2.722656 -1.015625 2.984375 -1.015625 C 3.285156 -1.015625 3.570312 -1.113281 3.84375 -1.3125 C 4.039062 -1.457031 4.171875 -1.640625 4.234375 -1.859375 C 4.273438 -1.992188 4.296875 -2.257812 4.296875 -2.65625 Z M 4.296875 -2.984375 "/>
</g>
<g id="glyph-0-3">
<path d="M 6.28125 -4.390625 L 4.671875 -4.09375 C 4.609375 -4.414062 4.476562 -4.65625 4.28125 -4.8125 C 4.09375 -4.976562 3.847656 -5.0625 3.546875 -5.0625 C 3.128906 -5.0625 2.796875 -4.921875 2.546875 -4.640625 C 2.304688 -4.359375 2.1875 -3.882812 2.1875 -3.21875 C 2.1875 -2.476562 2.3125 -1.957031 2.5625 -1.65625 C 2.8125 -1.351562 3.144531 -1.203125 3.5625 -1.203125 C 3.875 -1.203125 4.128906 -1.289062 4.328125 -1.46875 C 4.523438 -1.644531 4.664062 -1.953125 4.75 -2.390625 L 6.375 -2.109375 C 6.207031 -1.367188 5.882812 -0.804688 5.40625 -0.421875 C 4.925781 -0.046875 4.285156 0.140625 3.484375 0.140625 C 2.578125 0.140625 1.851562 -0.144531 1.3125 -0.71875 C 0.769531 -1.289062 0.5 -2.085938 0.5 -3.109375 C 0.5 -4.128906 0.769531 -4.925781 1.3125 -5.5 C 1.851562 -6.070312 2.585938 -6.359375 3.515625 -6.359375 C 4.273438 -6.359375 4.878906 -6.195312 5.328125 -5.875 C 5.773438 -5.550781 6.09375 -5.054688 6.28125 -4.390625 Z M 6.28125 -4.390625 "/>
</g>
<g id="glyph-0-4">
<path d="M 4.46875 -1.984375 L 6.109375 -1.703125 C 5.898438 -1.097656 5.566406 -0.640625 5.109375 -0.328125 C 4.648438 -0.015625 4.082031 0.140625 3.40625 0.140625 C 2.320312 0.140625 1.519531 -0.210938 1 -0.921875 C 0.582031 -1.484375 0.375 -2.195312 0.375 -3.0625 C 0.375 -4.09375 0.644531 -4.898438 1.1875 -5.484375 C 1.726562 -6.066406 2.410156 -6.359375 3.234375 -6.359375 C 4.160156 -6.359375 4.890625 -6.050781 5.421875 -5.4375 C 5.960938 -4.832031 6.21875 -3.898438 6.1875 -2.640625 L 2.0625 -2.640625 C 2.082031 -2.148438 2.21875 -1.769531 2.46875 -1.5 C 2.71875 -1.226562 3.035156 -1.09375 3.421875 -1.09375 C 3.671875 -1.09375 3.882812 -1.160156 4.0625 -1.296875 C 4.238281 -1.441406 4.375 -1.671875 4.46875 -1.984375 Z M 4.5625 -3.640625 C 4.550781 -4.117188 4.425781 -4.484375 4.1875 -4.734375 C 3.957031 -4.984375 3.671875 -5.109375 3.328125 -5.109375 C 2.972656 -5.109375 2.675781 -4.976562 2.4375 -4.71875 C 2.207031 -4.445312 2.09375 -4.085938 2.09375 -3.640625 Z M 4.5625 -3.640625 "/>
</g>
<g id="glyph-0-5">
<path d="M 0.671875 -2.296875 L 0.671875 -3.9375 L 3.90625 -3.9375 L 3.90625 -2.296875 Z M 0.671875 -2.296875 "/>
</g>
<g id="glyph-0-6">
<path d="M 0.1875 -6.21875 L 1.09375 -6.21875 L 1.09375 -6.6875 C 1.09375 -7.21875 1.148438 -7.609375 1.265625 -7.859375 C 1.378906 -8.117188 1.582031 -8.328125 1.875 -8.484375 C 2.175781 -8.648438 2.554688 -8.734375 3.015625 -8.734375 C 3.484375 -8.734375 3.941406 -8.664062 4.390625 -8.53125 L 4.171875 -7.375 C 3.910156 -7.4375 3.65625 -7.46875 3.40625 -7.46875 C 3.164062 -7.46875 2.992188 -7.410156 2.890625 -7.296875 C 2.796875 -7.191406 2.75 -6.976562 2.75 -6.65625 L 2.75 -6.21875 L 3.96875 -6.21875 L 3.96875 -4.921875 L 2.75 -4.921875 L 2.75 0 L 1.09375 0 L 1.09375 -4.921875 L 0.1875 -4.921875 Z M 4.8125 -7.0625 L 4.8125 -8.59375 L 6.453125 -8.59375 L 6.453125 -7.0625 Z M 4.8125 0 L 4.8125 -6.21875 L 6.453125 -6.21875 L 6.453125 0 Z M 4.8125 0 "/>
</g>
<g id="glyph-0-7">
<path d="M 0.859375 0 L 0.859375 -8.59375 L 2.515625 -8.59375 L 2.515625 0 Z M 0.859375 0 "/>
</g>
<g id="glyph-0-8">
<path d="M 0.859375 -7.0625 L 0.859375 -8.59375 L 2.515625 -8.59375 L 2.515625 -7.0625 Z M 0.859375 0 L 0.859375 -6.21875 L 2.515625 -6.21875 L 2.515625 0 Z M 0.859375 0 "/>
</g>
<g id="glyph-0-9">
<path d="M 6.515625 0 L 4.875 0 L 4.875 -3.171875 C 4.875 -3.847656 4.835938 -4.285156 4.765625 -4.484375 C 4.703125 -4.679688 4.585938 -4.832031 4.421875 -4.9375 C 4.265625 -5.050781 4.078125 -5.109375 3.859375 -5.109375 C 3.566406 -5.109375 3.304688 -5.03125 3.078125 -4.875 C 2.859375 -4.71875 2.707031 -4.507812 2.625 -4.25 C 2.539062 -3.988281 2.5 -3.507812 2.5 -2.8125 L 2.5 0 L 0.84375 0 L 0.84375 -6.21875 L 2.375 -6.21875 L 2.375 -5.3125 C 2.914062 -6.007812 3.601562 -6.359375 4.4375 -6.359375 C 4.789062 -6.359375 5.117188 -6.289062 5.421875 -6.15625 C 5.722656 -6.03125 5.953125 -5.863281 6.109375 -5.65625 C 6.265625 -5.457031 6.367188 -5.226562 6.421875 -4.96875 C 6.484375 -4.71875 6.515625 -4.351562 6.515625 -3.875 Z M 6.515625 0 "/>
</g>
<g id="glyph-0-10">
<path d="M 0.703125 0.40625 L 2.59375 0.640625 C 2.625 0.859375 2.695312 1.007812 2.8125 1.09375 C 2.96875 1.207031 3.210938 1.265625 3.546875 1.265625 C 3.972656 1.265625 4.296875 1.203125 4.515625 1.078125 C 4.660156 0.984375 4.769531 0.84375 4.84375 0.65625 C 4.894531 0.519531 4.921875 0.269531 4.921875 -0.09375 L 4.921875 -1.015625 C 4.421875 -0.335938 3.796875 0 3.046875 0 C 2.210938 0 1.550781 -0.351562 1.0625 -1.0625 C 0.6875 -1.625 0.5 -2.316406 0.5 -3.140625 C 0.5 -4.191406 0.75 -4.988281 1.25 -5.53125 C 1.75 -6.082031 2.375 -6.359375 3.125 -6.359375 C 3.882812 -6.359375 4.515625 -6.019531 5.015625 -5.34375 L 5.015625 -6.21875 L 6.5625 -6.21875 L 6.5625 -0.640625 C 6.5625 0.0976562 6.5 0.644531 6.375 1 C 6.257812 1.363281 6.09375 1.648438 5.875 1.859375 C 5.65625 2.066406 5.363281 2.226562 5 2.34375 C 4.632812 2.46875 4.171875 2.53125 3.609375 2.53125 C 2.554688 2.53125 1.804688 2.347656 1.359375 1.984375 C 0.921875 1.617188 0.703125 1.160156 0.703125 0.609375 C 0.703125 0.554688 0.703125 0.488281 0.703125 0.40625 Z M 2.1875 -3.234375 C 2.1875 -2.578125 2.3125 -2.09375 2.5625 -1.78125 C 2.820312 -1.476562 3.140625 -1.328125 3.515625 -1.328125 C 3.910156 -1.328125 4.25 -1.484375 4.53125 -1.796875 C 4.8125 -2.117188 4.953125 -2.585938 4.953125 -3.203125 C 4.953125 -3.847656 4.816406 -4.328125 4.546875 -4.640625 C 4.285156 -4.953125 3.953125 -5.109375 3.546875 -5.109375 C 3.148438 -5.109375 2.820312 -4.953125 2.5625 -4.640625 C 2.3125 -4.335938 2.1875 -3.867188 2.1875 -3.234375 Z M 2.1875 -3.234375 "/>
</g>
<g id="glyph-0-11">
</g>
<g id="glyph-0-12">
<path d="M 6.375 -3.15625 L 8.046875 -2.625 C 7.796875 -1.6875 7.367188 -0.988281 6.765625 -0.53125 C 6.160156 -0.0820312 5.398438 0.140625 4.484375 0.140625 C 3.335938 0.140625 2.394531 -0.242188 1.65625 -1.015625 C 0.925781 -1.796875 0.5625 -2.863281 0.5625 -4.21875 C 0.5625 -5.644531 0.929688 -6.753906 1.671875 -7.546875 C 2.410156 -8.335938 3.382812 -8.734375 4.59375 -8.734375 C 5.644531 -8.734375 6.5 -8.425781 7.15625 -7.8125 C 7.539062 -7.4375 7.832031 -6.90625 8.03125 -6.21875 L 6.3125 -5.8125 C 6.207031 -6.257812 5.992188 -6.609375 5.671875 -6.859375 C 5.347656 -7.117188 4.957031 -7.25 4.5 -7.25 C 3.863281 -7.25 3.347656 -7.019531 2.953125 -6.5625 C 2.554688 -6.113281 2.359375 -5.375 2.359375 -4.34375 C 2.359375 -3.257812 2.550781 -2.488281 2.9375 -2.03125 C 3.332031 -1.570312 3.84375 -1.34375 4.46875 -1.34375 C 4.925781 -1.34375 5.320312 -1.488281 5.65625 -1.78125 C 5.988281 -2.070312 6.226562 -2.53125 6.375 -3.15625 Z M 6.375 -3.15625 "/>
</g>
<g id="glyph-0-13">
<path d="M 4.953125 0 L 4.953125 -0.9375 C 4.734375 -0.601562 4.4375 -0.335938 4.0625 -0.140625 C 3.695312 0.046875 3.304688 0.140625 2.890625 0.140625 C 2.472656 0.140625 2.097656 0.0507812 1.765625 -0.125 C 1.429688 -0.3125 1.191406 -0.570312 1.046875 -0.90625 C 0.898438 -1.238281 0.828125 -1.695312 0.828125 -2.28125 L 0.828125 -6.21875 L 2.46875 -6.21875 L 2.46875 -3.359375 C 2.46875 -2.484375 2.5 -1.945312 2.5625 -1.75 C 2.625 -1.550781 2.734375 -1.394531 2.890625 -1.28125 C 3.054688 -1.164062 3.257812 -1.109375 3.5 -1.109375 C 3.78125 -1.109375 4.03125 -1.1875 4.25 -1.34375 C 4.476562 -1.5 4.632812 -1.691406 4.71875 -1.921875 C 4.800781 -2.148438 4.84375 -2.707031 4.84375 -3.59375 L 4.84375 -6.21875 L 6.484375 -6.21875 L 6.484375 0 Z M 4.953125 0 "/>
</g>
<g id="glyph-0-14">
<path d="M 2.4375 0 L 0.796875 0 L 0.796875 -6.21875 L 2.328125 -6.21875 L 2.328125 -5.34375 C 2.585938 -5.757812 2.820312 -6.03125 3.03125 -6.15625 C 3.238281 -6.289062 3.472656 -6.359375 3.734375 -6.359375 C 4.109375 -6.359375 4.472656 -6.253906 4.828125 -6.046875 L 4.3125 -4.625 C 4.03125 -4.800781 3.773438 -4.890625 3.546875 -4.890625 C 3.304688 -4.890625 3.109375 -4.820312 2.953125 -4.6875 C 2.796875 -4.5625 2.671875 -4.332031 2.578125 -4 C 2.484375 -3.675781 2.4375 -2.984375 2.4375 -1.921875 Z M 2.4375 0 "/>
</g>
<g id="glyph-0-15">
<path d="M 2.578125 0 L 0.0625 -6.21875 L 1.796875 -6.21875 L 2.96875 -3.046875 L 3.3125 -1.984375 C 3.394531 -2.253906 3.445312 -2.429688 3.46875 -2.515625 C 3.53125 -2.691406 3.59375 -2.867188 3.65625 -3.046875 L 4.828125 -6.21875 L 6.53125 -6.21875 L 4.0625 0 Z M 2.578125 0 "/>
</g>
<g id="glyph-0-16">
<path d="M 2.8125 0 L 2.8125 -7.140625 L 0.265625 -7.140625 L 0.265625 -8.59375 L 7.078125 -8.59375 L 7.078125 -7.140625 L 4.546875 -7.140625 L 4.546875 0 Z M 2.8125 0 "/>
</g>
<g id="glyph-0-17">
<path d="M 0.484375 -3.203125 C 0.484375 -3.742188 0.617188 -4.269531 0.890625 -4.78125 C 1.160156 -5.300781 1.539062 -5.691406 2.03125 -5.953125 C 2.519531 -6.222656 3.070312 -6.359375 3.6875 -6.359375 C 4.625 -6.359375 5.394531 -6.050781 6 -5.4375 C 6.601562 -4.832031 6.90625 -4.0625 6.90625 -3.125 C 6.90625 -2.1875 6.597656 -1.40625 5.984375 -0.78125 C 5.378906 -0.164062 4.617188 0.140625 3.703125 0.140625 C 3.128906 0.140625 2.582031 0.0078125 2.0625 -0.25 C 1.550781 -0.507812 1.160156 -0.882812 0.890625 -1.375 C 0.617188 -1.875 0.484375 -2.484375 0.484375 -3.203125 Z M 2.171875 -3.109375 C 2.171875 -2.492188 2.316406 -2.019531 2.609375 -1.6875 C 2.898438 -1.363281 3.257812 -1.203125 3.6875 -1.203125 C 4.125 -1.203125 4.484375 -1.363281 4.765625 -1.6875 C 5.054688 -2.019531 5.203125 -2.5 5.203125 -3.125 C 5.203125 -3.726562 5.054688 -4.191406 4.765625 -4.515625 C 4.484375 -4.847656 4.125 -5.015625 3.6875 -5.015625 C 3.257812 -5.015625 2.898438 -4.847656 2.609375 -4.515625 C 2.316406 -4.191406 2.171875 -3.722656 2.171875 -3.109375 Z M 2.171875 -3.109375 "/>
</g>
<g id="glyph-0-18">
<path d="M 0.921875 0 L 0.921875 -8.515625 L 2.65625 -8.515625 L 2.65625 -1.453125 L 6.96875 -1.453125 L 6.96875 0 Z M 0.921875 0 "/>
</g>
<g id="glyph-0-19">
<path d="M 0.875 0 L 0.875 -8.59375 L 2.609375 -8.59375 L 2.609375 -5.203125 L 6.015625 -5.203125 L 6.015625 -8.59375 L 7.75 -8.59375 L 7.75 0 L 6.015625 0 L 6.015625 -3.75 L 2.609375 -3.75 L 2.609375 0 Z M 0.875 0 "/>
</g>
<g id="glyph-0-20">
<path d="M 6.5625 0 L 5.046875 0 L 5.046875 -0.921875 C 4.785156 -0.554688 4.484375 -0.285156 4.140625 -0.109375 C 3.796875 0.0546875 3.445312 0.140625 3.09375 0.140625 C 2.375 0.140625 1.757812 -0.144531 1.25 -0.71875 C 0.75 -1.300781 0.5 -2.109375 0.5 -3.140625 C 0.5 -4.191406 0.742188 -4.988281 1.234375 -5.53125 C 1.734375 -6.082031 2.363281 -6.359375 3.125 -6.359375 C 3.8125 -6.359375 4.410156 -6.070312 4.921875 -5.5 L 4.921875 -8.59375 L 6.5625 -8.59375 Z M 2.171875 -3.25 C 2.171875 -2.582031 2.265625 -2.101562 2.453125 -1.8125 C 2.710938 -1.375 3.082031 -1.15625 3.5625 -1.15625 C 3.9375 -1.15625 4.253906 -1.316406 4.515625 -1.640625 C 4.785156 -1.960938 4.921875 -2.445312 4.921875 -3.09375 C 4.921875 -3.800781 4.789062 -4.3125 4.53125 -4.625 C 4.28125 -4.945312 3.953125 -5.109375 3.546875 -5.109375 C 3.160156 -5.109375 2.832031 -4.953125 2.5625 -4.640625 C 2.300781 -4.328125 2.171875 -3.863281 2.171875 -3.25 Z M 2.171875 -3.25 "/>
</g>
<g id="glyph-1-0">
<path d="M 4.09375 -2.828125 L 4.265625 -3.640625 L 7.40625 -3.640625 L 6.796875 -0.71875 C 6.398438 -0.46875 5.945312 -0.265625 5.4375 -0.109375 C 4.9375 0.046875 4.441406 0.125 3.953125 0.125 C 2.910156 0.125 2.132812 -0.191406 1.625 -0.828125 C 1.1875 -1.347656 0.96875 -2.023438 0.96875 -2.859375 C 0.96875 -3.722656 1.15625 -4.503906 1.53125 -5.203125 C 1.914062 -5.910156 2.394531 -6.429688 2.96875 -6.765625 C 3.550781 -7.109375 4.195312 -7.28125 4.90625 -7.28125 C 5.414062 -7.28125 5.867188 -7.1875 6.265625 -7 C 6.671875 -6.820312 6.976562 -6.578125 7.1875 -6.265625 C 7.40625 -5.960938 7.5625 -5.5625 7.65625 -5.0625 L 6.71875 -4.96875 C 6.625 -5.457031 6.414062 -5.832031 6.09375 -6.09375 C 5.78125 -6.351562 5.375 -6.484375 4.875 -6.484375 C 4.351562 -6.484375 3.867188 -6.34375 3.421875 -6.0625 C 2.972656 -5.78125 2.613281 -5.351562 2.34375 -4.78125 C 2.070312 -4.21875 1.9375 -3.578125 1.9375 -2.859375 C 1.9375 -2.128906 2.113281 -1.582031 2.46875 -1.21875 C 2.832031 -0.851562 3.328125 -0.671875 3.953125 -0.671875 C 4.566406 -0.671875 5.234375 -0.875 5.953125 -1.28125 L 6.28125 -2.828125 Z M 4.09375 -2.828125 "/>
</g>
<g id="glyph-1-1">
<path d="M 3.828125 -0.640625 C 3.523438 -0.378906 3.226562 -0.1875 2.9375 -0.0625 C 2.65625 0.0625 2.351562 0.125 2.03125 0.125 C 1.550781 0.125 1.164062 -0.015625 0.875 -0.296875 C 0.582031 -0.585938 0.4375 -0.953125 0.4375 -1.390625 C 0.4375 -1.679688 0.5 -1.9375 0.625 -2.15625 C 0.757812 -2.375 0.9375 -2.550781 1.15625 -2.6875 C 1.375 -2.820312 1.644531 -2.921875 1.96875 -2.984375 C 2.164062 -3.023438 2.539062 -3.054688 3.09375 -3.078125 C 3.644531 -3.097656 4.039062 -3.15625 4.28125 -3.25 C 4.351562 -3.488281 4.390625 -3.691406 4.390625 -3.859375 C 4.390625 -4.054688 4.316406 -4.21875 4.171875 -4.34375 C 3.960938 -4.5 3.660156 -4.578125 3.265625 -4.578125 C 2.890625 -4.578125 2.582031 -4.492188 2.34375 -4.328125 C 2.113281 -4.171875 1.945312 -3.941406 1.84375 -3.640625 L 0.953125 -3.71875 C 1.128906 -4.226562 1.414062 -4.617188 1.8125 -4.890625 C 2.207031 -5.160156 2.707031 -5.296875 3.3125 -5.296875 C 3.945312 -5.296875 4.453125 -5.144531 4.828125 -4.84375 C 5.117188 -4.613281 5.265625 -4.316406 5.265625 -3.953125 C 5.265625 -3.679688 5.222656 -3.363281 5.140625 -3 L 4.859375 -1.703125 C 4.765625 -1.296875 4.71875 -0.960938 4.71875 -0.703125 C 4.71875 -0.535156 4.753906 -0.300781 4.828125 0 L 3.9375 0 C 3.882812 -0.164062 3.847656 -0.378906 3.828125 -0.640625 Z M 4.15625 -2.625 C 4.03125 -2.570312 3.894531 -2.53125 3.75 -2.5 C 3.613281 -2.476562 3.378906 -2.457031 3.046875 -2.4375 C 2.535156 -2.382812 2.171875 -2.320312 1.953125 -2.25 C 1.742188 -2.1875 1.582031 -2.078125 1.46875 -1.921875 C 1.363281 -1.765625 1.3125 -1.597656 1.3125 -1.421875 C 1.3125 -1.171875 1.394531 -0.960938 1.5625 -0.796875 C 1.738281 -0.640625 1.988281 -0.5625 2.3125 -0.5625 C 2.601562 -0.5625 2.882812 -0.640625 3.15625 -0.796875 C 3.425781 -0.953125 3.640625 -1.164062 3.796875 -1.4375 C 3.953125 -1.71875 4.070312 -2.113281 4.15625 -2.625 Z M 4.15625 -2.625 "/>
</g>
<g id="glyph-1-2">
<path d="M 3.828125 -0.75 C 3.328125 -0.164062 2.800781 0.125 2.25 0.125 C 1.757812 0.125 1.347656 -0.0546875 1.015625 -0.421875 C 0.691406 -0.785156 0.53125 -1.3125 0.53125 -2 C 0.53125 -2.632812 0.65625 -3.210938 0.90625 -3.734375 C 1.164062 -4.253906 1.488281 -4.644531 1.875 -4.90625 C 2.269531 -5.164062 2.664062 -5.296875 3.0625 -5.296875 C 3.707031 -5.296875 4.191406 -4.988281 4.515625 -4.375 L 5.109375 -7.15625 L 5.984375 -7.15625 L 4.484375 0 L 3.671875 0 Z M 1.40625 -2.171875 C 1.40625 -1.804688 1.441406 -1.519531 1.515625 -1.3125 C 1.585938 -1.101562 1.707031 -0.929688 1.875 -0.796875 C 2.050781 -0.660156 2.257812 -0.59375 2.5 -0.59375 C 2.894531 -0.59375 3.257812 -0.800781 3.59375 -1.21875 C 4.03125 -1.769531 4.25 -2.453125 4.25 -3.265625 C 4.25 -3.671875 4.140625 -3.988281 3.921875 -4.21875 C 3.703125 -4.457031 3.429688 -4.578125 3.109375 -4.578125 C 2.898438 -4.578125 2.707031 -4.53125 2.53125 -4.4375 C 2.351562 -4.34375 2.179688 -4.179688 2.015625 -3.953125 C 1.847656 -3.722656 1.703125 -3.429688 1.578125 -3.078125 C 1.460938 -2.734375 1.40625 -2.429688 1.40625 -2.171875 Z M 1.40625 -2.171875 "/>
</g>
<g id="glyph-1-3">
<path d="M 0.28125 0.46875 L 1.171875 0.546875 C 1.171875 0.753906 1.195312 0.90625 1.25 1 C 1.300781 1.101562 1.390625 1.179688 1.515625 1.234375 C 1.671875 1.304688 1.878906 1.34375 2.140625 1.34375 C 2.671875 1.34375 3.050781 1.207031 3.28125 0.9375 C 3.4375 0.75 3.582031 0.34375 3.71875 -0.28125 L 3.796875 -0.703125 C 3.335938 -0.234375 2.847656 0 2.328125 0 C 1.804688 0 1.367188 -0.191406 1.015625 -0.578125 C 0.660156 -0.960938 0.484375 -1.507812 0.484375 -2.21875 C 0.484375 -2.800781 0.625 -3.335938 0.90625 -3.828125 C 1.1875 -4.316406 1.515625 -4.679688 1.890625 -4.921875 C 2.273438 -5.171875 2.675781 -5.296875 3.09375 -5.296875 C 3.769531 -5.296875 4.289062 -4.976562 4.65625 -4.34375 L 4.828125 -5.1875 L 5.640625 -5.1875 L 4.59375 -0.1875 C 4.476562 0.363281 4.328125 0.789062 4.140625 1.09375 C 3.960938 1.40625 3.707031 1.644531 3.375 1.8125 C 3.039062 1.988281 2.660156 2.078125 2.234375 2.078125 C 1.816406 2.078125 1.457031 2.019531 1.15625 1.90625 C 0.851562 1.800781 0.628906 1.644531 0.484375 1.4375 C 0.335938 1.238281 0.265625 1.003906 0.265625 0.734375 C 0.265625 0.648438 0.269531 0.5625 0.28125 0.46875 Z M 1.390625 -2.296875 C 1.390625 -1.941406 1.421875 -1.675781 1.484375 -1.5 C 1.585938 -1.25 1.726562 -1.054688 1.90625 -0.921875 C 2.082031 -0.785156 2.285156 -0.71875 2.515625 -0.71875 C 2.796875 -0.71875 3.078125 -0.816406 3.359375 -1.015625 C 3.648438 -1.222656 3.882812 -1.539062 4.0625 -1.96875 C 4.25 -2.394531 4.34375 -2.800781 4.34375 -3.1875 C 4.34375 -3.613281 4.222656 -3.953125 3.984375 -4.203125 C 3.742188 -4.460938 3.453125 -4.59375 3.109375 -4.59375 C 2.890625 -4.59375 2.675781 -4.535156 2.46875 -4.421875 C 2.269531 -4.304688 2.082031 -4.128906 1.90625 -3.890625 C 1.738281 -3.648438 1.609375 -3.363281 1.515625 -3.03125 C 1.429688 -2.707031 1.390625 -2.460938 1.390625 -2.296875 Z M 1.390625 -2.296875 "/>
</g>
<g id="glyph-1-4">
<path d="M 4.140625 -1.765625 L 5 -1.671875 C 4.875 -1.242188 4.585938 -0.835938 4.140625 -0.453125 C 3.703125 -0.0664062 3.175781 0.125 2.5625 0.125 C 2.175781 0.125 1.820312 0.0351562 1.5 -0.140625 C 1.175781 -0.328125 0.929688 -0.585938 0.765625 -0.921875 C 0.597656 -1.265625 0.515625 -1.648438 0.515625 -2.078125 C 0.515625 -2.648438 0.644531 -3.203125 0.90625 -3.734375 C 1.164062 -4.265625 1.503906 -4.65625 1.921875 -4.90625 C 2.335938 -5.164062 2.789062 -5.296875 3.28125 -5.296875 C 3.894531 -5.296875 4.382812 -5.101562 4.75 -4.71875 C 5.125 -4.34375 5.3125 -3.820312 5.3125 -3.15625 C 5.3125 -2.90625 5.289062 -2.644531 5.25 -2.375 L 1.4375 -2.375 C 1.414062 -2.269531 1.40625 -2.175781 1.40625 -2.09375 C 1.40625 -1.613281 1.515625 -1.242188 1.734375 -0.984375 C 1.960938 -0.734375 2.238281 -0.609375 2.5625 -0.609375 C 2.863281 -0.609375 3.160156 -0.707031 3.453125 -0.90625 C 3.742188 -1.101562 3.972656 -1.390625 4.140625 -1.765625 Z M 1.578125 -3.046875 L 4.484375 -3.046875 C 4.484375 -3.140625 4.484375 -3.207031 4.484375 -3.25 C 4.484375 -3.6875 4.375 -4.019531 4.15625 -4.25 C 3.9375 -4.488281 3.648438 -4.609375 3.296875 -4.609375 C 2.921875 -4.609375 2.578125 -4.476562 2.265625 -4.21875 C 1.953125 -3.957031 1.722656 -3.566406 1.578125 -3.046875 Z M 1.578125 -3.046875 "/>
</g>
<g id="glyph-1-5">
<path d="M 2.390625 -0.71875 L 2.25 0 C 2.039062 0.0625 1.835938 0.09375 1.640625 0.09375 C 1.285156 0.09375 1.003906 0.00390625 0.796875 -0.171875 C 0.640625 -0.296875 0.5625 -0.472656 0.5625 -0.703125 C 0.5625 -0.816406 0.601562 -1.078125 0.6875 -1.484375 L 1.3125 -4.5 L 0.625 -4.5 L 0.765625 -5.1875 L 1.453125 -5.1875 L 1.734375 -6.453125 L 2.734375 -7.078125 L 2.34375 -5.1875 L 3.21875 -5.1875 L 3.0625 -4.5 L 2.203125 -4.5 L 1.609375 -1.640625 C 1.523438 -1.273438 1.484375 -1.054688 1.484375 -0.984375 C 1.484375 -0.878906 1.515625 -0.796875 1.578125 -0.734375 C 1.640625 -0.679688 1.738281 -0.65625 1.875 -0.65625 C 2.070312 -0.65625 2.242188 -0.675781 2.390625 -0.71875 Z M 2.390625 -0.71875 "/>
</g>
<g id="glyph-1-6">
<path d="M 0.46875 -2.15625 L 0.65625 -3.03125 L 3.34375 -3.03125 L 3.171875 -2.15625 Z M 0.46875 -2.15625 "/>
</g>
<g id="glyph-1-7">
<path d="M 0.59375 0 C 0.675781 -0.425781 0.796875 -0.78125 0.953125 -1.0625 C 1.117188 -1.351562 1.332031 -1.628906 1.59375 -1.890625 C 1.863281 -2.148438 2.382812 -2.582031 3.15625 -3.1875 C 3.613281 -3.5625 3.925781 -3.835938 4.09375 -4.015625 C 4.34375 -4.265625 4.519531 -4.507812 4.625 -4.75 C 4.695312 -4.914062 4.734375 -5.097656 4.734375 -5.296875 C 4.734375 -5.628906 4.617188 -5.910156 4.390625 -6.140625 C 4.160156 -6.367188 3.875 -6.484375 3.53125 -6.484375 C 3.195312 -6.484375 2.90625 -6.363281 2.65625 -6.125 C 2.40625 -5.894531 2.226562 -5.523438 2.125 -5.015625 L 1.25 -5.140625 C 1.332031 -5.773438 1.578125 -6.273438 1.984375 -6.640625 C 2.398438 -7.003906 2.910156 -7.1875 3.515625 -7.1875 C 3.921875 -7.1875 4.289062 -7.101562 4.625 -6.9375 C 4.957031 -6.769531 5.207031 -6.53125 5.375 -6.21875 C 5.539062 -5.914062 5.625 -5.601562 5.625 -5.28125 C 5.625 -4.800781 5.453125 -4.34375 5.109375 -3.90625 C 4.898438 -3.625 4.289062 -3.082031 3.28125 -2.28125 C 2.84375 -1.9375 2.515625 -1.65625 2.296875 -1.4375 C 2.085938 -1.21875 1.929688 -1.007812 1.828125 -0.8125 L 5.03125 -0.8125 L 4.859375 0 Z M 0.59375 0 "/>
</g>
<g id="glyph-1-8">
<path d="M 0.703125 -2.3125 L 1.640625 -2.40625 L 1.625 -2.15625 C 1.625 -1.875 1.6875 -1.617188 1.8125 -1.390625 C 1.945312 -1.160156 2.160156 -0.984375 2.453125 -0.859375 C 2.742188 -0.734375 3.09375 -0.671875 3.5 -0.671875 C 4.070312 -0.671875 4.507812 -0.796875 4.8125 -1.046875 C 5.113281 -1.296875 5.265625 -1.582031 5.265625 -1.90625 C 5.265625 -2.132812 5.179688 -2.34375 5.015625 -2.53125 C 4.859375 -2.707031 4.414062 -2.953125 3.6875 -3.265625 C 3.125 -3.515625 2.738281 -3.703125 2.53125 -3.828125 C 2.207031 -4.035156 1.96875 -4.265625 1.8125 -4.515625 C 1.664062 -4.765625 1.59375 -5.050781 1.59375 -5.375 C 1.59375 -5.738281 1.691406 -6.066406 1.890625 -6.359375 C 2.097656 -6.660156 2.394531 -6.890625 2.78125 -7.046875 C 3.164062 -7.203125 3.601562 -7.28125 4.09375 -7.28125 C 4.675781 -7.28125 5.164062 -7.179688 5.5625 -6.984375 C 5.96875 -6.785156 6.257812 -6.523438 6.4375 -6.203125 C 6.625 -5.878906 6.71875 -5.570312 6.71875 -5.28125 C 6.71875 -5.25 6.710938 -5.195312 6.703125 -5.125 L 5.78125 -5.046875 C 5.78125 -5.253906 5.765625 -5.414062 5.734375 -5.53125 C 5.671875 -5.726562 5.566406 -5.894531 5.421875 -6.03125 C 5.285156 -6.164062 5.097656 -6.273438 4.859375 -6.359375 C 4.617188 -6.441406 4.351562 -6.484375 4.0625 -6.484375 C 3.539062 -6.484375 3.132812 -6.367188 2.84375 -6.140625 C 2.625 -5.953125 2.515625 -5.710938 2.515625 -5.421875 C 2.515625 -5.242188 2.554688 -5.082031 2.640625 -4.9375 C 2.734375 -4.800781 2.898438 -4.671875 3.140625 -4.546875 C 3.316406 -4.453125 3.71875 -4.265625 4.34375 -3.984375 C 4.863281 -3.753906 5.222656 -3.570312 5.421875 -3.4375 C 5.679688 -3.269531 5.878906 -3.0625 6.015625 -2.8125 C 6.148438 -2.570312 6.21875 -2.296875 6.21875 -1.984375 C 6.21875 -1.585938 6.097656 -1.226562 5.859375 -0.90625 C 5.628906 -0.582031 5.304688 -0.328125 4.890625 -0.140625 C 4.472656 0.0351562 4 0.125 3.46875 0.125 C 2.65625 0.125 1.988281 -0.0507812 1.46875 -0.40625 C 0.957031 -0.757812 0.703125 -1.394531 0.703125 -2.3125 Z M 0.703125 -2.3125 "/>
</g>
<g id="glyph-1-9">
<path d="M 1.6875 0 L 1.25 -7.15625 L 2.21875 -7.15625 L 2.390625 -3.625 C 2.398438 -3.445312 2.414062 -2.984375 2.4375 -2.234375 C 2.445312 -2.023438 2.453125 -1.878906 2.453125 -1.796875 C 2.453125 -1.742188 2.445312 -1.582031 2.4375 -1.3125 C 2.832031 -2.132812 3.117188 -2.707031 3.296875 -3.03125 L 5.484375 -7.15625 L 6.46875 -7.15625 L 6.703125 -2.96875 C 6.734375 -2.488281 6.753906 -1.914062 6.765625 -1.25 C 6.816406 -1.414062 6.921875 -1.660156 7.078125 -1.984375 C 7.304688 -2.515625 7.476562 -2.894531 7.59375 -3.125 L 9.640625 -7.15625 L 10.609375 -7.15625 L 6.96875 0 L 5.953125 0 L 5.703125 -4.34375 C 5.679688 -4.707031 5.664062 -5.160156 5.65625 -5.703125 C 5.457031 -5.253906 5.289062 -4.90625 5.15625 -4.65625 L 2.671875 0 Z M 1.6875 0 "/>
</g>
<g id="glyph-1-10">
<path d="M 0.578125 0 L 2.078125 -7.15625 L 3.015625 -7.15625 L 1.53125 0 Z M 0.578125 0 "/>
</g>
<g id="glyph-1-11">
<path d="M 0.453125 0 L 1.953125 -7.15625 L 6.609375 -7.15625 L 6.4375 -6.34375 L 2.734375 -6.34375 L 2.265625 -4.0625 L 6.03125 -4.0625 L 5.859375 -3.25 L 2.09375 -3.25 L 1.40625 0 Z M 0.453125 0 "/>
</g>
<g id="glyph-1-12">
<path d="M 2.265625 0 L 3.59375 -6.34375 L 1.25 -6.34375 L 1.421875 -7.15625 L 7.046875 -7.15625 L 6.875 -6.34375 L 4.546875 -6.34375 L 3.234375 0 Z M 2.265625 0 "/>
</g>
<g id="glyph-1-13">
<path d="M -0.203125 0 L 3.859375 -7.15625 L 4.984375 -7.15625 L 6.171875 0 L 5.234375 0 L 4.890625 -2.0625 L 2 -2.0625 L 0.84375 0 Z M 2.40625 -2.796875 L 4.78125 -2.796875 L 4.5 -4.59375 C 4.394531 -5.3125 4.328125 -5.90625 4.296875 -6.375 C 4.128906 -5.96875 3.890625 -5.484375 3.578125 -4.921875 Z M 2.40625 -2.796875 "/>
</g>
<g id="glyph-1-14">
<path d="M 0.328125 0 L 1.421875 -5.1875 L 2.203125 -5.1875 L 1.984375 -4.125 C 2.242188 -4.53125 2.5 -4.828125 2.75 -5.015625 C 3.007812 -5.203125 3.273438 -5.296875 3.546875 -5.296875 C 3.722656 -5.296875 3.9375 -5.234375 4.1875 -5.109375 L 3.828125 -4.296875 C 3.679688 -4.398438 3.515625 -4.453125 3.328125 -4.453125 C 3.015625 -4.453125 2.695312 -4.28125 2.375 -3.9375 C 2.050781 -3.59375 1.796875 -2.972656 1.609375 -2.078125 L 1.171875 0 Z M 0.328125 0 "/>
</g>
<g id="glyph-1-15">
<path d="M -0.109375 1.984375 L 1.390625 -5.1875 L 2.21875 -5.1875 L 2.0625 -4.46875 C 2.363281 -4.78125 2.632812 -4.992188 2.875 -5.109375 C 3.113281 -5.234375 3.367188 -5.296875 3.640625 -5.296875 C 4.128906 -5.296875 4.535156 -5.113281 4.859375 -4.75 C 5.191406 -4.394531 5.359375 -3.882812 5.359375 -3.21875 C 5.359375 -2.675781 5.265625 -2.179688 5.078125 -1.734375 C 4.898438 -1.296875 4.679688 -0.941406 4.421875 -0.671875 C 4.160156 -0.398438 3.894531 -0.195312 3.625 -0.0625 C 3.363281 0.0625 3.09375 0.125 2.8125 0.125 C 2.1875 0.125 1.707031 -0.191406 1.375 -0.828125 L 0.78125 1.984375 Z M 1.640625 -2.125 C 1.640625 -1.726562 1.671875 -1.457031 1.734375 -1.3125 C 1.804688 -1.101562 1.9375 -0.929688 2.125 -0.796875 C 2.3125 -0.671875 2.53125 -0.609375 2.78125 -0.609375 C 3.28125 -0.609375 3.6875 -0.890625 4 -1.453125 C 4.3125 -2.023438 4.46875 -2.613281 4.46875 -3.21875 C 4.46875 -3.65625 4.363281 -3.992188 4.15625 -4.234375 C 3.945312 -4.472656 3.6875 -4.59375 3.375 -4.59375 C 3.144531 -4.59375 2.9375 -4.53125 2.75 -4.40625 C 2.5625 -4.289062 2.382812 -4.113281 2.21875 -3.875 C 2.050781 -3.644531 1.910156 -3.359375 1.796875 -3.015625 C 1.691406 -2.671875 1.640625 -2.375 1.640625 -2.125 Z M 1.640625 -2.125 "/>
</g>
<g id="glyph-1-16">
<path d="M 0.484375 -1.96875 C 0.484375 -2.976562 0.78125 -3.816406 1.375 -4.484375 C 1.875 -5.023438 2.519531 -5.296875 3.3125 -5.296875 C 3.9375 -5.296875 4.441406 -5.097656 4.828125 -4.703125 C 5.210938 -4.316406 5.40625 -3.796875 5.40625 -3.140625 C 5.40625 -2.535156 5.28125 -1.976562 5.03125 -1.46875 C 4.789062 -0.957031 4.445312 -0.5625 4 -0.28125 C 3.5625 -0.0078125 3.097656 0.125 2.609375 0.125 C 2.203125 0.125 1.832031 0.0351562 1.5 -0.140625 C 1.175781 -0.316406 0.925781 -0.5625 0.75 -0.875 C 0.570312 -1.1875 0.484375 -1.550781 0.484375 -1.96875 Z M 1.375 -2.0625 C 1.375 -1.570312 1.488281 -1.195312 1.71875 -0.9375 C 1.957031 -0.6875 2.257812 -0.5625 2.625 -0.5625 C 2.8125 -0.5625 2.992188 -0.597656 3.171875 -0.671875 C 3.359375 -0.753906 3.53125 -0.875 3.6875 -1.03125 C 3.851562 -1.1875 3.988281 -1.363281 4.09375 -1.5625 C 4.207031 -1.757812 4.300781 -1.976562 4.375 -2.21875 C 4.476562 -2.539062 4.53125 -2.847656 4.53125 -3.140625 C 4.53125 -3.609375 4.410156 -3.972656 4.171875 -4.234375 C 3.929688 -4.492188 3.632812 -4.625 3.28125 -4.625 C 3 -4.625 2.742188 -4.554688 2.515625 -4.421875 C 2.296875 -4.285156 2.09375 -4.09375 1.90625 -3.84375 C 1.71875 -3.59375 1.582031 -3.296875 1.5 -2.953125 C 1.414062 -2.617188 1.375 -2.320312 1.375 -2.0625 Z M 1.375 -2.0625 "/>
</g>
<g id="glyph-2-0">
<path d="M 0.640625 -2.3125 L 2.03125 -2.390625 C 2.050781 -1.941406 2.128906 -1.640625 2.265625 -1.484375 C 2.484375 -1.234375 2.878906 -1.109375 3.453125 -1.109375 C 3.941406 -1.109375 4.289062 -1.191406 4.5 -1.359375 C 4.71875 -1.535156 4.828125 -1.75 4.828125 -2 C 4.828125 -2.207031 4.738281 -2.382812 4.5625 -2.53125 C 4.4375 -2.632812 4.09375 -2.804688 3.53125 -3.046875 C 2.976562 -3.285156 2.570312 -3.484375 2.3125 -3.640625 C 2.0625 -3.804688 1.863281 -4.019531 1.71875 -4.28125 C 1.570312 -4.539062 1.5 -4.84375 1.5 -5.1875 C 1.5 -5.789062 1.71875 -6.289062 2.15625 -6.6875 C 2.59375 -7.082031 3.222656 -7.28125 4.046875 -7.28125 C 4.890625 -7.28125 5.539062 -7.082031 6 -6.6875 C 6.457031 -6.289062 6.710938 -5.769531 6.765625 -5.125 L 5.359375 -5.046875 C 5.316406 -5.390625 5.1875 -5.648438 4.96875 -5.828125 C 4.757812 -6.015625 4.453125 -6.109375 4.046875 -6.109375 C 3.640625 -6.109375 3.347656 -6.035156 3.171875 -5.890625 C 2.992188 -5.753906 2.90625 -5.578125 2.90625 -5.359375 C 2.90625 -5.148438 2.988281 -4.976562 3.15625 -4.84375 C 3.3125 -4.707031 3.660156 -4.519531 4.203125 -4.28125 C 5.023438 -3.925781 5.550781 -3.640625 5.78125 -3.421875 C 6.113281 -3.097656 6.28125 -2.679688 6.28125 -2.171875 C 6.28125 -1.535156 6.03125 -0.992188 5.53125 -0.546875 C 5.03125 -0.0976562 4.335938 0.125 3.453125 0.125 C 2.835938 0.125 2.300781 0.0195312 1.84375 -0.1875 C 1.394531 -0.394531 1.078125 -0.679688 0.890625 -1.046875 C 0.703125 -1.421875 0.617188 -1.84375 0.640625 -2.3125 Z M 0.640625 -2.3125 "/>
</g>
<g id="glyph-2-1">
<path d="M 1.4375 -5.1875 L 2.765625 -5.1875 L 2.65625 -4.65625 C 2.9375 -4.882812 3.203125 -5.050781 3.453125 -5.15625 C 3.703125 -5.257812 3.96875 -5.3125 4.25 -5.3125 C 4.789062 -5.3125 5.226562 -5.125 5.5625 -4.75 C 5.894531 -4.375 6.0625 -3.816406 6.0625 -3.078125 C 6.0625 -2.140625 5.773438 -1.347656 5.203125 -0.703125 C 4.710938 -0.148438 4.132812 0.125 3.46875 0.125 C 2.78125 0.125 2.257812 -0.15625 1.90625 -0.71875 L 1.34375 1.984375 L -0.046875 1.984375 Z M 2.28125 -2.21875 C 2.28125 -1.8125 2.378906 -1.492188 2.578125 -1.265625 C 2.773438 -1.046875 3.007812 -0.9375 3.28125 -0.9375 C 3.507812 -0.9375 3.726562 -1.019531 3.9375 -1.1875 C 4.15625 -1.351562 4.332031 -1.628906 4.46875 -2.015625 C 4.613281 -2.410156 4.6875 -2.773438 4.6875 -3.109375 C 4.6875 -3.492188 4.59375 -3.789062 4.40625 -4 C 4.226562 -4.207031 3.992188 -4.3125 3.703125 -4.3125 C 3.441406 -4.3125 3.195312 -4.210938 2.96875 -4.015625 C 2.75 -3.828125 2.578125 -3.546875 2.453125 -3.171875 C 2.335938 -2.804688 2.28125 -2.488281 2.28125 -2.21875 Z M 2.28125 -2.21875 "/>
</g>
<g id="glyph-2-2">
<path d="M 2.375 -3.71875 L 1.015625 -3.828125 C 1.171875 -4.296875 1.441406 -4.660156 1.828125 -4.921875 C 2.210938 -5.179688 2.726562 -5.3125 3.375 -5.3125 C 4.039062 -5.3125 4.53125 -5.175781 4.84375 -4.90625 C 5.164062 -4.632812 5.328125 -4.304688 5.328125 -3.921875 C 5.328125 -3.765625 5.3125 -3.597656 5.28125 -3.421875 C 5.257812 -3.242188 5.164062 -2.78125 5 -2.03125 C 4.863281 -1.414062 4.796875 -0.984375 4.796875 -0.734375 C 4.796875 -0.515625 4.832031 -0.269531 4.90625 0 L 3.546875 0 C 3.492188 -0.1875 3.460938 -0.382812 3.453125 -0.59375 C 3.242188 -0.363281 3.003906 -0.1875 2.734375 -0.0625 C 2.472656 0.0625 2.207031 0.125 1.9375 0.125 C 1.507812 0.125 1.15625 -0.015625 0.875 -0.296875 C 0.59375 -0.578125 0.453125 -0.941406 0.453125 -1.390625 C 0.453125 -1.878906 0.601562 -2.269531 0.90625 -2.5625 C 1.21875 -2.863281 1.769531 -3.046875 2.5625 -3.109375 C 3.226562 -3.160156 3.671875 -3.226562 3.890625 -3.3125 C 3.953125 -3.507812 3.984375 -3.664062 3.984375 -3.78125 C 3.984375 -3.925781 3.921875 -4.050781 3.796875 -4.15625 C 3.679688 -4.257812 3.503906 -4.3125 3.265625 -4.3125 C 3.015625 -4.3125 2.816406 -4.257812 2.671875 -4.15625 C 2.523438 -4.050781 2.425781 -3.90625 2.375 -3.71875 Z M 3.71875 -2.421875 C 3.625 -2.398438 3.507812 -2.378906 3.375 -2.359375 C 2.664062 -2.273438 2.207031 -2.148438 2 -1.984375 C 1.84375 -1.867188 1.765625 -1.710938 1.765625 -1.515625 C 1.765625 -1.347656 1.820312 -1.207031 1.9375 -1.09375 C 2.0625 -0.976562 2.21875 -0.921875 2.40625 -0.921875 C 2.613281 -0.921875 2.8125 -0.972656 3 -1.078125 C 3.1875 -1.179688 3.328125 -1.3125 3.421875 -1.46875 C 3.515625 -1.632812 3.597656 -1.890625 3.671875 -2.234375 Z M 3.71875 -2.421875 "/>
</g>
<g id="glyph-2-3">
<path d="M 0.75 -4.140625 L 0.96875 -5.1875 L 1.65625 -5.1875 L 1.828125 -6.015625 L 3.421875 -6.984375 L 3.046875 -5.1875 L 3.90625 -5.1875 L 3.6875 -4.140625 L 2.828125 -4.140625 L 2.375 -1.96875 C 2.289062 -1.570312 2.25 -1.347656 2.25 -1.296875 C 2.25 -1.191406 2.285156 -1.109375 2.359375 -1.046875 C 2.429688 -0.984375 2.554688 -0.953125 2.734375 -0.953125 C 2.796875 -0.953125 2.945312 -0.960938 3.1875 -0.984375 L 2.96875 0.046875 C 2.726562 0.0976562 2.484375 0.125 2.234375 0.125 C 1.734375 0.125 1.367188 0.03125 1.140625 -0.15625 C 0.921875 -0.351562 0.8125 -0.617188 0.8125 -0.953125 C 0.8125 -1.117188 0.875 -1.488281 1 -2.0625 L 1.4375 -4.140625 Z M 0.75 -4.140625 "/>
</g>
<g id="glyph-2-4">
<path d="M 1.890625 -7.15625 L 3.296875 -7.15625 L 3.03125 -5.890625 L 1.625 -5.890625 Z M 1.484375 -5.1875 L 2.890625 -5.1875 L 1.796875 0 L 0.40625 0 Z M 1.484375 -5.1875 "/>
</g>
<g id="glyph-2-5">
<path d="M 0.390625 0 L 1.890625 -7.15625 L 3.28125 -7.15625 L 1.796875 0 Z M 0.390625 0 "/>
</g>
<g id="glyph-2-6">
</g>
<g id="glyph-2-7">
<path d="M 0.453125 0 L 1.953125 -7.15625 L 3.421875 -7.15625 L 2.171875 -1.203125 L 5.8125 -1.203125 L 5.5625 0 Z M 0.453125 0 "/>
</g>
<g id="glyph-2-8">
<path d="M 0.828125 -5.1875 L 2.234375 -5.1875 L 2.578125 -2.609375 C 2.671875 -1.941406 2.722656 -1.472656 2.734375 -1.203125 C 2.910156 -1.734375 3.160156 -2.296875 3.484375 -2.890625 L 4.71875 -5.1875 L 6.203125 -5.1875 L 3 0.515625 C 2.738281 0.984375 2.53125 1.3125 2.375 1.5 C 2.226562 1.6875 2.046875 1.832031 1.828125 1.9375 C 1.617188 2.050781 1.363281 2.109375 1.0625 2.109375 C 0.769531 2.109375 0.4375 2.054688 0.0625 1.953125 L 0.1875 0.90625 C 0.351562 0.957031 0.515625 0.984375 0.671875 0.984375 C 1.109375 0.984375 1.460938 0.65625 1.734375 0 Z M 0.828125 -5.1875 "/>
</g>
<g id="glyph-2-9">
<path d="M 0.609375 -2.15625 C 0.609375 -3.113281 0.878906 -3.878906 1.421875 -4.453125 C 1.960938 -5.023438 2.675781 -5.3125 3.5625 -5.3125 C 4.320312 -5.3125 4.914062 -5.097656 5.34375 -4.671875 C 5.769531 -4.253906 5.984375 -3.6875 5.984375 -2.96875 C 5.984375 -2.132812 5.710938 -1.410156 5.171875 -0.796875 C 4.640625 -0.179688 3.925781 0.125 3.03125 0.125 C 2.539062 0.125 2.101562 0.0234375 1.71875 -0.171875 C 1.34375 -0.367188 1.0625 -0.644531 0.875 -1 C 0.695312 -1.351562 0.609375 -1.738281 0.609375 -2.15625 Z M 4.59375 -3.15625 C 4.59375 -3.488281 4.492188 -3.753906 4.296875 -3.953125 C 4.109375 -4.148438 3.863281 -4.25 3.5625 -4.25 C 3.257812 -4.25 2.988281 -4.15625 2.75 -3.96875 C 2.519531 -3.78125 2.335938 -3.507812 2.203125 -3.15625 C 2.078125 -2.800781 2.015625 -2.472656 2.015625 -2.171875 C 2.015625 -1.796875 2.113281 -1.5 2.3125 -1.28125 C 2.519531 -1.070312 2.773438 -0.96875 3.078125 -0.96875 C 3.460938 -0.96875 3.785156 -1.128906 4.046875 -1.453125 C 4.410156 -1.921875 4.59375 -2.488281 4.59375 -3.15625 Z M 4.59375 -3.15625 "/>
</g>
<g id="glyph-2-10">
<path d="M 1.46875 -5.1875 L 2.875 -5.1875 L 2.234375 -2.109375 C 2.160156 -1.742188 2.125 -1.515625 2.125 -1.421875 C 2.125 -1.273438 2.175781 -1.144531 2.28125 -1.03125 C 2.394531 -0.925781 2.535156 -0.875 2.703125 -0.875 C 2.828125 -0.875 2.945312 -0.894531 3.0625 -0.9375 C 3.1875 -0.988281 3.3125 -1.0625 3.4375 -1.15625 C 3.570312 -1.257812 3.6875 -1.375 3.78125 -1.5 C 3.882812 -1.625 3.984375 -1.785156 4.078125 -1.984375 C 4.140625 -2.128906 4.203125 -2.375 4.265625 -2.71875 L 4.796875 -5.1875 L 6.1875 -5.1875 L 5.109375 0 L 3.796875 0 L 3.953125 -0.703125 C 3.378906 -0.148438 2.753906 0.125 2.078125 0.125 C 1.648438 0.125 1.3125 0.00390625 1.0625 -0.234375 C 0.820312 -0.484375 0.703125 -0.8125 0.703125 -1.21875 C 0.703125 -1.40625 0.757812 -1.765625 0.875 -2.296875 Z M 1.46875 -5.1875 "/>
</g>
<g id="glyph-2-11">
<path d="M 0.875 -2.8125 C 0.875 -3.226562 0.9375 -3.671875 1.0625 -4.140625 C 1.226562 -4.773438 1.476562 -5.320312 1.8125 -5.78125 C 2.15625 -6.238281 2.585938 -6.601562 3.109375 -6.875 C 3.628906 -7.144531 4.21875 -7.28125 4.875 -7.28125 C 5.757812 -7.28125 6.472656 -7.003906 7.015625 -6.453125 C 7.566406 -5.898438 7.84375 -5.171875 7.84375 -4.265625 C 7.84375 -3.515625 7.664062 -2.785156 7.3125 -2.078125 C 6.957031 -1.367188 6.472656 -0.820312 5.859375 -0.4375 C 5.253906 -0.0625 4.566406 0.125 3.796875 0.125 C 3.128906 0.125 2.566406 -0.0234375 2.109375 -0.328125 C 1.660156 -0.628906 1.34375 -1.003906 1.15625 -1.453125 C 0.96875 -1.898438 0.875 -2.351562 0.875 -2.8125 Z M 2.328125 -2.84375 C 2.328125 -2.34375 2.476562 -1.925781 2.78125 -1.59375 C 3.082031 -1.269531 3.472656 -1.109375 3.953125 -1.109375 C 4.359375 -1.109375 4.742188 -1.238281 5.109375 -1.5 C 5.472656 -1.757812 5.773438 -2.15625 6.015625 -2.6875 C 6.253906 -3.21875 6.375 -3.738281 6.375 -4.25 C 6.375 -4.8125 6.222656 -5.25 5.921875 -5.5625 C 5.617188 -5.882812 5.234375 -6.046875 4.765625 -6.046875 C 4.046875 -6.046875 3.457031 -5.707031 3 -5.03125 C 2.550781 -4.363281 2.328125 -3.632812 2.328125 -2.84375 Z M 2.328125 -2.84375 "/>
</g>
<g id="glyph-2-12">
<path d="M 1.5 -5.1875 L 2.828125 -5.1875 L 2.703125 -4.515625 C 3.023438 -4.796875 3.332031 -5 3.625 -5.125 C 3.914062 -5.25 4.21875 -5.3125 4.53125 -5.3125 C 4.957031 -5.3125 5.289062 -5.1875 5.53125 -4.9375 C 5.78125 -4.695312 5.90625 -4.375 5.90625 -3.96875 C 5.90625 -3.789062 5.851562 -3.445312 5.75 -2.9375 L 5.140625 0 L 3.734375 0 L 4.359375 -2.9375 C 4.453125 -3.382812 4.5 -3.648438 4.5 -3.734375 C 4.5 -3.910156 4.441406 -4.050781 4.328125 -4.15625 C 4.222656 -4.257812 4.078125 -4.3125 3.890625 -4.3125 C 3.679688 -4.3125 3.453125 -4.222656 3.203125 -4.046875 C 2.953125 -3.878906 2.757812 -3.648438 2.625 -3.359375 C 2.519531 -3.160156 2.398438 -2.75 2.265625 -2.125 L 1.828125 0 L 0.421875 0 Z M 1.5 -5.1875 "/>
</g>
<g id="glyph-2-13">
<path d="M 0.671875 -3.25 L 3.390625 -3.25 L 3.109375 -1.90625 L 0.390625 -1.90625 Z M 0.671875 -3.25 "/>
</g>
<g id="glyph-2-14">
<path d="M 5.1875 0 L 3.859375 0 L 3.984375 -0.5625 C 3.722656 -0.320312 3.46875 -0.144531 3.21875 -0.03125 C 2.976562 0.0703125 2.703125 0.125 2.390625 0.125 C 1.859375 0.125 1.425781 -0.0546875 1.09375 -0.421875 C 0.757812 -0.796875 0.59375 -1.335938 0.59375 -2.046875 C 0.59375 -2.878906 0.828125 -3.628906 1.296875 -4.296875 C 1.765625 -4.972656 2.382812 -5.3125 3.15625 -5.3125 C 3.851562 -5.3125 4.375 -5.035156 4.71875 -4.484375 L 5.28125 -7.15625 L 6.6875 -7.15625 Z M 1.953125 -2.109375 C 1.953125 -1.734375 2.046875 -1.441406 2.234375 -1.234375 C 2.421875 -1.023438 2.648438 -0.921875 2.921875 -0.921875 C 3.179688 -0.921875 3.421875 -1.007812 3.640625 -1.1875 C 3.859375 -1.363281 4.03125 -1.628906 4.15625 -1.984375 C 4.289062 -2.347656 4.359375 -2.691406 4.359375 -3.015625 C 4.359375 -3.390625 4.253906 -3.691406 4.046875 -3.921875 C 3.847656 -4.148438 3.617188 -4.265625 3.359375 -4.265625 C 2.953125 -4.265625 2.613281 -4.035156 2.34375 -3.578125 C 2.082031 -3.128906 1.953125 -2.640625 1.953125 -2.109375 Z M 1.953125 -2.109375 "/>
</g>
<g id="glyph-2-15">
<path d="M 0.21875 -1.453125 L 1.578125 -1.671875 C 1.703125 -1.378906 1.851562 -1.171875 2.03125 -1.046875 C 2.207031 -0.929688 2.453125 -0.875 2.765625 -0.875 C 3.078125 -0.875 3.332031 -0.945312 3.53125 -1.09375 C 3.65625 -1.1875 3.71875 -1.304688 3.71875 -1.453125 C 3.71875 -1.546875 3.6875 -1.628906 3.625 -1.703125 C 3.550781 -1.773438 3.359375 -1.863281 3.046875 -1.96875 C 2.191406 -2.25 1.664062 -2.46875 1.46875 -2.625 C 1.15625 -2.882812 1 -3.21875 1 -3.625 C 1 -4.039062 1.148438 -4.394531 1.453125 -4.6875 C 1.878906 -5.101562 2.515625 -5.3125 3.359375 -5.3125 C 4.023438 -5.3125 4.523438 -5.1875 4.859375 -4.9375 C 5.203125 -4.695312 5.421875 -4.367188 5.515625 -3.953125 L 4.21875 -3.71875 C 4.15625 -3.914062 4.046875 -4.0625 3.890625 -4.15625 C 3.679688 -4.28125 3.429688 -4.34375 3.140625 -4.34375 C 2.847656 -4.34375 2.632812 -4.289062 2.5 -4.1875 C 2.375 -4.09375 2.3125 -3.984375 2.3125 -3.859375 C 2.3125 -3.722656 2.378906 -3.613281 2.515625 -3.53125 C 2.585938 -3.476562 2.847656 -3.390625 3.296875 -3.265625 C 3.984375 -3.066406 4.441406 -2.867188 4.671875 -2.671875 C 4.992188 -2.398438 5.15625 -2.078125 5.15625 -1.703125 C 5.15625 -1.210938 4.945312 -0.785156 4.53125 -0.421875 C 4.125 -0.0546875 3.539062 0.125 2.78125 0.125 C 2.039062 0.125 1.460938 -0.0078125 1.046875 -0.28125 C 0.640625 -0.5625 0.363281 -0.953125 0.21875 -1.453125 Z M 0.21875 -1.453125 "/>
</g>
<g id="glyph-2-16">
<path d="M 0.375 0 L 1.875 -7.15625 L 3.28125 -7.15625 L 2.5 -3.4375 L 4.328125 -5.1875 L 6.140625 -5.1875 L 4.0625 -3.296875 L 5.171875 0 L 3.765625 0 L 3.046875 -2.390625 L 2.109375 -1.5625 L 1.78125 0 Z M 0.375 0 "/>
</g>
</g>
</defs>
<g fill="rgb(13.725281%, 12.156677%, 12.548828%)" fill-opacity="1">
<use xlink:href="#glyph-0-0" x="24.1343" y="9.07"/>
</g>
<g fill="rgb(13.725281%, 12.156677%, 12.548828%)" fill-opacity="1">
<use xlink:href="#glyph-0-1" x="32.1371" y="9.07"/>
</g>
<g fill="rgb(13.725281%, 12.156677%, 12.548828%)" fill-opacity="1">
<use xlink:href="#glyph-0-2" x="39.4667" y="9.07"/>
</g>
<g fill="rgb(13.725281%, 12.156677%, 12.548828%)" fill-opacity="1">
<use xlink:href="#glyph-0-3" x="46.1411" y="9.07"/>
</g>
<g fill="rgb(13.725281%, 12.156677%, 12.548828%)" fill-opacity="1">
<use xlink:href="#glyph-0-4" x="52.8155" y="9.07"/>
</g>
<g fill="rgb(13.725281%, 12.156677%, 12.548828%)" fill-opacity="1">
<use xlink:href="#glyph-0-5" x="59.4899" y="9.07"/>
</g>
<g fill="rgb(13.725281%, 12.156677%, 12.548828%)" fill-opacity="1">
<use xlink:href="#glyph-0-6" x="63.4871" y="9.07"/>
</g>
<g fill="rgb(13.725281%, 12.156677%, 12.548828%)" fill-opacity="1">
<use xlink:href="#glyph-0-7" x="70.8167" y="9.07"/>
</g>
<g fill="rgb(13.725281%, 12.156677%, 12.548828%)" fill-opacity="1">
<use xlink:href="#glyph-0-7" x="74.1503" y="9.07"/>
</g>
<g fill="rgb(13.725281%, 12.156677%, 12.548828%)" fill-opacity="1">
<use xlink:href="#glyph-0-8" x="77.4839" y="9.07"/>
</g>
<g fill="rgb(13.725281%, 12.156677%, 12.548828%)" fill-opacity="1">
<use xlink:href="#glyph-0-9" x="80.8175" y="9.07"/>
</g>
<g fill="rgb(13.725281%, 12.156677%, 12.548828%)" fill-opacity="1">
<use xlink:href="#glyph-0-10" x="88.1471" y="9.07"/>
</g>
<g fill="rgb(13.725281%, 12.156677%, 12.548828%)" fill-opacity="1">
<use xlink:href="#glyph-0-11" x="95.4767" y="9.07"/>
</g>
<g fill="rgb(13.725281%, 12.156677%, 12.548828%)" fill-opacity="1">
<use xlink:href="#glyph-0-12" x="98.8103" y="9.07"/>
</g>
<g fill="rgb(13.725281%, 12.156677%, 12.548828%)" fill-opacity="1">
<use xlink:href="#glyph-0-13" x="107.4767" y="9.07"/>
</g>
<g fill="rgb(13.725281%, 12.156677%, 12.548828%)" fill-opacity="1">
<use xlink:href="#glyph-0-14" x="114.8063" y="9.07"/>
</g>
<g fill="rgb(13.725281%, 12.156677%, 12.548828%)" fill-opacity="1">
<use xlink:href="#glyph-0-15" x="119.4767" y="9.07"/>
</g>
<g fill="rgb(13.725281%, 12.156677%, 12.548828%)" fill-opacity="1">
<use xlink:href="#glyph-0-4" x="126.1511" y="9.07"/>
</g>
<g fill="rgb(13.725281%, 12.156677%, 12.548828%)" fill-opacity="1">
<use xlink:href="#glyph-1-0" x="57.6328" y="26.07"/>
</g>
<g fill="rgb(13.725281%, 12.156677%, 12.548828%)" fill-opacity="1">
<use xlink:href="#glyph-1-1" x="65.4108" y="26.07"/>
</g>
<g fill="rgb(13.725281%, 12.156677%, 12.548828%)" fill-opacity="1">
<use xlink:href="#glyph-1-2" x="70.9728" y="26.07"/>
</g>
<g fill="rgb(13.725281%, 12.156677%, 12.548828%)" fill-opacity="1">
<use xlink:href="#glyph-1-3" x="76.5348" y="26.07"/>
</g>
<g fill="rgb(13.725281%, 12.156677%, 12.548828%)" fill-opacity="1">
<use xlink:href="#glyph-1-4" x="82.0968" y="26.07"/>
</g>
<g fill="rgb(13.725281%, 12.156677%, 12.548828%)" fill-opacity="1">
<use xlink:href="#glyph-1-5" x="87.6588" y="26.07"/>
</g>
<g fill="rgb(13.725281%, 12.156677%, 12.548828%)" fill-opacity="1">
<use xlink:href="#glyph-1-6" x="90.4368" y="26.07"/>
</g>
<g fill="rgb(13.725281%, 12.156677%, 12.548828%)" fill-opacity="1">
<use xlink:href="#glyph-1-7" x="93.7678" y="26.07"/>
</g>
<g fill="rgb(13.725281%, 12.156677%, 12.548828%)" fill-opacity="1">
<use xlink:href="#glyph-0-16" x="349.918" y="9.07"/>
</g>
<g fill="rgb(13.725281%, 12.156677%, 12.548828%)" fill-opacity="1">
<use xlink:href="#glyph-0-17" x="356.3572" y="9.07"/>
</g>
<g fill="rgb(13.725281%, 12.156677%, 12.548828%)" fill-opacity="1">
<use xlink:href="#glyph-0-1" x="363.6868" y="9.07"/>
</g>
<g fill="rgb(13.725281%, 12.156677%, 12.548828%)" fill-opacity="1">
<use xlink:href="#glyph-0-5" x="371.0164" y="9.07"/>
</g>
<g fill="rgb(13.725281%, 12.156677%, 12.548828%)" fill-opacity="1">
<use xlink:href="#glyph-0-18" x="375.0136" y="9.07"/>
</g>
<g fill="rgb(13.725281%, 12.156677%, 12.548828%)" fill-opacity="1">
<use xlink:href="#glyph-0-4" x="382.3432" y="9.07"/>
</g>
<g fill="rgb(13.725281%, 12.156677%, 12.548828%)" fill-opacity="1">
<use xlink:href="#glyph-0-15" x="389.0176" y="9.07"/>
</g>
<g fill="rgb(13.725281%, 12.156677%, 12.548828%)" fill-opacity="1">
<use xlink:href="#glyph-0-4" x="395.692" y="9.07"/>
</g>
<g fill="rgb(13.725281%, 12.156677%, 12.548828%)" fill-opacity="1">
<use xlink:href="#glyph-0-7" x="402.3664" y="9.07"/>
</g>
<g fill="rgb(13.725281%, 12.156677%, 12.548828%)" fill-opacity="1">
<use xlink:href="#glyph-0-11" x="405.7" y="9.07"/>
</g>
<g fill="rgb(13.725281%, 12.156677%, 12.548828%)" fill-opacity="1">
<use xlink:href="#glyph-0-12" x="409.0336" y="9.07"/>
</g>
<g fill="rgb(13.725281%, 12.156677%, 12.548828%)" fill-opacity="1">
<use xlink:href="#glyph-0-4" x="417.7" y="9.07"/>
</g>
<g fill="rgb(13.725281%, 12.156677%, 12.548828%)" fill-opacity="1">
<use xlink:href="#glyph-0-7" x="424.3744" y="9.07"/>
</g>
<g fill="rgb(13.725281%, 12.156677%, 12.548828%)" fill-opacity="1">
<use xlink:href="#glyph-0-7" x="427.708" y="9.07"/>
</g>
<g fill="rgb(13.725281%, 12.156677%, 12.548828%)" fill-opacity="1">
<use xlink:href="#glyph-1-8" x="374.928" y="26.07"/>
</g>
<g fill="rgb(13.725281%, 12.156677%, 12.548828%)" fill-opacity="1">
<use xlink:href="#glyph-1-9" x="381.597" y="26.07"/>
</g>
<g fill="rgb(13.725281%, 12.156677%, 12.548828%)" fill-opacity="1">
<use xlink:href="#glyph-1-10" x="391.035" y="26.07"/>
</g>
<g fill="rgb(13.725281%, 12.156677%, 12.548828%)" fill-opacity="1">
<use xlink:href="#glyph-1-11" x="393.813" y="26.07"/>
</g>
<g fill="rgb(13.725281%, 12.156677%, 12.548828%)" fill-opacity="1">
<use xlink:href="#glyph-1-12" x="399.921" y="26.07"/>
</g>
<g fill="rgb(13.725281%, 12.156677%, 12.548828%)" fill-opacity="1">
<use xlink:href="#glyph-0-19" x="197.141" y="9.07"/>
</g>
<g fill="rgb(13.725281%, 12.156677%, 12.548828%)" fill-opacity="1">
<use xlink:href="#glyph-0-2" x="205.8074" y="9.07"/>
</g>
<g fill="rgb(13.725281%, 12.156677%, 12.548828%)" fill-opacity="1">
<use xlink:href="#glyph-0-7" x="212.4818" y="9.07"/>
</g>
<g fill="rgb(13.725281%, 12.156677%, 12.548828%)" fill-opacity="1">
<use xlink:href="#glyph-0-17" x="215.8154" y="9.07"/>
</g>
<g fill="rgb(13.725281%, 12.156677%, 12.548828%)" fill-opacity="1">
<use xlink:href="#glyph-0-5" x="223.145" y="9.07"/>
</g>
<g fill="rgb(13.725281%, 12.156677%, 12.548828%)" fill-opacity="1">
<use xlink:href="#glyph-0-17" x="227.1422" y="9.07"/>
</g>
<g fill="rgb(13.725281%, 12.156677%, 12.548828%)" fill-opacity="1">
<use xlink:href="#glyph-0-14" x="234.4718" y="9.07"/>
</g>
<g fill="rgb(13.725281%, 12.156677%, 12.548828%)" fill-opacity="1">
<use xlink:href="#glyph-0-20" x="239.1422" y="9.07"/>
</g>
<g fill="rgb(13.725281%, 12.156677%, 12.548828%)" fill-opacity="1">
<use xlink:href="#glyph-0-4" x="246.4718" y="9.07"/>
</g>
<g fill="rgb(13.725281%, 12.156677%, 12.548828%)" fill-opacity="1">
<use xlink:href="#glyph-0-14" x="253.1462" y="9.07"/>
</g>
<g fill="rgb(13.725281%, 12.156677%, 12.548828%)" fill-opacity="1">
<use xlink:href="#glyph-0-4" x="257.8166" y="9.07"/>
</g>
<g fill="rgb(13.725281%, 12.156677%, 12.548828%)" fill-opacity="1">
<use xlink:href="#glyph-0-20" x="264.491" y="9.07"/>
</g>
<g fill="rgb(13.725281%, 12.156677%, 12.548828%)" fill-opacity="1">
<use xlink:href="#glyph-1-13" x="221.138" y="26.07"/>
</g>
<g fill="rgb(13.725281%, 12.156677%, 12.548828%)" fill-opacity="1">
<use xlink:href="#glyph-1-14" x="227.807" y="26.07"/>
</g>
<g fill="rgb(13.725281%, 12.156677%, 12.548828%)" fill-opacity="1">
<use xlink:href="#glyph-1-4" x="231.138" y="26.07"/>
</g>
<g fill="rgb(13.725281%, 12.156677%, 12.548828%)" fill-opacity="1">
<use xlink:href="#glyph-1-15" x="236.7" y="26.07"/>
</g>
<g fill="rgb(13.725281%, 12.156677%, 12.548828%)" fill-opacity="1">
<use xlink:href="#glyph-1-16" x="242.262" y="26.07"/>
</g>
<path fill-rule="evenodd" fill="rgb(90.588379%, 90.98053%, 91.372681%)" fill-opacity="1" stroke-width="1" stroke-linecap="round" stroke-linejoin="round" stroke="rgb(13.725281%, 12.156677%, 12.548828%)" stroke-opacity="1" stroke-miterlimit="10" d="M 6.480469 48.177344 L 150.480469 48.177344 L 150.480469 192.177344 L 6.480469 192.177344 Z M 6.480469 48.177344 " transform="matrix(1, 0, 0, -1, 0, 248.4)"/>
<path fill-rule="evenodd" fill="rgb(90.588379%, 90.98053%, 91.372681%)" fill-opacity="1" stroke-width="0.45" stroke-linecap="round" stroke-linejoin="round" stroke="rgb(13.725281%, 12.156677%, 12.548828%)" stroke-opacity="1" stroke-miterlimit="10" d="M 6.480469 156.177344 L 42.480469 156.177344 L 42.480469 192.177344 L 6.480469 192.177344 Z M 6.480469 156.177344 " transform="matrix(1, 0, 0, -1, 0, 248.4)"/>
<path fill-rule="evenodd" fill="rgb(90.588379%, 90.98053%, 91.372681%)" fill-opacity="1" stroke-width="0.45" stroke-linecap="round" stroke-linejoin="round" stroke="rgb(13.725281%, 12.156677%, 12.548828%)" stroke-opacity="1" stroke-miterlimit="10" d="M 42.480469 156.177344 L 78.480469 156.177344 L 78.480469 192.177344 L 42.480469 192.177344 Z M 42.480469 156.177344 " transform="matrix(1, 0, 0, -1, 0, 248.4)"/>
<path fill="none" stroke-width="0.45" stroke-linecap="round" stroke-linejoin="round" stroke="rgb(14.117432%, 12.156677%, 12.940979%)" stroke-opacity="1" stroke-miterlimit="10" d="M 78.480469 156.177344 L 114.480469 156.177344 L 114.480469 192.177344 L 78.480469 192.177344 Z M 78.480469 156.177344 " transform="matrix(1, 0, 0, -1, 0, 248.4)"/>
<path fill-rule="evenodd" fill="rgb(90.588379%, 90.98053%, 91.372681%)" fill-opacity="1" stroke-width="0.45" stroke-linecap="round" stroke-linejoin="round" stroke="rgb(13.725281%, 12.156677%, 12.548828%)" stroke-opacity="1" stroke-miterlimit="10" d="M 114.480469 156.177344 L 150.480469 156.177344 L 150.480469 192.177344 L 114.480469 192.177344 Z M 114.480469 156.177344 " transform="matrix(1, 0, 0, -1, 0, 248.4)"/>
<path fill-rule="evenodd" fill="rgb(90.588379%, 90.98053%, 91.372681%)" fill-opacity="1" stroke-width="0.45" stroke-linecap="round" stroke-linejoin="round" stroke="rgb(13.725281%, 12.156677%, 12.548828%)" stroke-opacity="1" stroke-miterlimit="10" d="M 6.480469 120.177344 L 42.480469 120.177344 L 42.480469 156.177344 L 6.480469 156.177344 Z M 6.480469 120.177344 " transform="matrix(1, 0, 0, -1, 0, 248.4)"/>
<path fill-rule="evenodd" fill="rgb(90.588379%, 90.98053%, 91.372681%)" fill-opacity="1" stroke-width="0.45" stroke-linecap="round" stroke-linejoin="round" stroke="rgb(13.725281%, 12.156677%, 12.548828%)" stroke-opacity="1" stroke-miterlimit="10" d="M 42.480469 120.177344 L 78.480469 120.177344 L 78.480469 156.177344 L 42.480469 156.177344 Z M 42.480469 120.177344 " transform="matrix(1, 0, 0, -1, 0, 248.4)"/>
<path fill-rule="evenodd" fill="rgb(90.588379%, 90.98053%, 91.372681%)" fill-opacity="1" stroke-width="0.45" stroke-linecap="round" stroke-linejoin="round" stroke="rgb(13.725281%, 12.156677%, 12.548828%)" stroke-opacity="1" stroke-miterlimit="10" d="M 78.480469 120.177344 L 114.480469 120.177344 L 114.480469 156.177344 L 78.480469 156.177344 Z M 78.480469 120.177344 " transform="matrix(1, 0, 0, -1, 0, 248.4)"/>
<path fill-rule="evenodd" fill="rgb(90.588379%, 90.98053%, 91.372681%)" fill-opacity="1" stroke-width="0.45" stroke-linecap="round" stroke-linejoin="round" stroke="rgb(13.725281%, 12.156677%, 12.548828%)" stroke-opacity="1" stroke-miterlimit="10" d="M 114.480469 120.177344 L 150.480469 120.177344 L 150.480469 156.177344 L 114.480469 156.177344 Z M 114.480469 120.177344 " transform="matrix(1, 0, 0, -1, 0, 248.4)"/>
<path fill-rule="evenodd" fill="rgb(90.588379%, 90.98053%, 91.372681%)" fill-opacity="1" stroke-width="0.45" stroke-linecap="round" stroke-linejoin="round" stroke="rgb(13.725281%, 12.156677%, 12.548828%)" stroke-opacity="1" stroke-miterlimit="10" d="M 6.480469 84.177344 L 42.480469 84.177344 L 42.480469 120.177344 L 6.480469 120.177344 Z M 6.480469 84.177344 " transform="matrix(1, 0, 0, -1, 0, 248.4)"/>
<path fill-rule="evenodd" fill="rgb(90.588379%, 90.98053%, 91.372681%)" fill-opacity="1" stroke-width="0.45" stroke-linecap="round" stroke-linejoin="round" stroke="rgb(13.725281%, 12.156677%, 12.548828%)" stroke-opacity="1" stroke-miterlimit="10" d="M 42.480469 84.177344 L 78.480469 84.177344 L 78.480469 120.177344 L 42.480469 120.177344 Z M 42.480469 84.177344 " transform="matrix(1, 0, 0, -1, 0, 248.4)"/>
<path fill-rule="evenodd" fill="rgb(90.588379%, 90.98053%, 91.372681%)" fill-opacity="1" stroke-width="0.45" stroke-linecap="round" stroke-linejoin="round" stroke="rgb(13.725281%, 12.156677%, 12.548828%)" stroke-opacity="1" stroke-miterlimit="10" d="M 78.480469 84.177344 L 114.480469 84.177344 L 114.480469 120.177344 L 78.480469 120.177344 Z M 78.480469 84.177344 " transform="matrix(1, 0, 0, -1, 0, 248.4)"/>
<path fill-rule="evenodd" fill="rgb(90.588379%, 90.98053%, 91.372681%)" fill-opacity="1" stroke-width="0.45" stroke-linecap="round" stroke-linejoin="round" stroke="rgb(13.725281%, 12.156677%, 12.548828%)" stroke-opacity="1" stroke-miterlimit="10" d="M 114.480469 84.177344 L 150.480469 84.177344 L 150.480469 120.177344 L 114.480469 120.177344 Z M 114.480469 84.177344 " transform="matrix(1, 0, 0, -1, 0, 248.4)"/>
<path fill-rule="evenodd" fill="rgb(90.588379%, 90.98053%, 91.372681%)" fill-opacity="1" stroke-width="0.45" stroke-linecap="round" stroke-linejoin="round" stroke="rgb(13.725281%, 12.156677%, 12.548828%)" stroke-opacity="1" stroke-miterlimit="10" d="M 6.480469 48.177344 L 42.480469 48.177344 L 42.480469 84.177344 L 6.480469 84.177344 Z M 6.480469 48.177344 " transform="matrix(1, 0, 0, -1, 0, 248.4)"/>
<path fill-rule="evenodd" fill="rgb(90.588379%, 90.98053%, 91.372681%)" fill-opacity="1" stroke-width="0.45" stroke-linecap="round" stroke-linejoin="round" stroke="rgb(13.725281%, 12.156677%, 12.548828%)" stroke-opacity="1" stroke-miterlimit="10" d="M 42.480469 48.177344 L 78.480469 48.177344 L 78.480469 84.177344 L 42.480469 84.177344 Z M 42.480469 48.177344 " transform="matrix(1, 0, 0, -1, 0, 248.4)"/>
<path fill-rule="evenodd" fill="rgb(90.588379%, 90.98053%, 91.372681%)" fill-opacity="1" stroke-width="0.45" stroke-linecap="round" stroke-linejoin="round" stroke="rgb(13.725281%, 12.156677%, 12.548828%)" stroke-opacity="1" stroke-miterlimit="10" d="M 78.480469 48.177344 L 114.480469 48.177344 L 114.480469 84.177344 L 78.480469 84.177344 Z M 78.480469 48.177344 " transform="matrix(1, 0, 0, -1, 0, 248.4)"/>
<path fill-rule="evenodd" fill="rgb(90.588379%, 90.98053%, 91.372681%)" fill-opacity="1" stroke-width="0.45" stroke-linecap="round" stroke-linejoin="round" stroke="rgb(13.725281%, 12.156677%, 12.548828%)" stroke-opacity="1" stroke-miterlimit="10" d="M 114.480469 48.177344 L 150.480469 48.177344 L 150.480469 84.177344 L 114.480469 84.177344 Z M 114.480469 48.177344 " transform="matrix(1, 0, 0, -1, 0, 248.4)"/>
<path fill="none" stroke-width="3" stroke-linecap="round" stroke-linejoin="round" stroke="rgb(80.784607%, 86.274719%, 15.686035%)" stroke-opacity="1" stroke-miterlimit="10" d="M 24.480469 66.177344 L 24.480469 103.419531 L 60.480469 103.419531 L 60.480469 66.177344 L 96.480469 66.177344 " transform="matrix(1, 0, 0, -1, 0, 248.4)"/>
<path fill="none" stroke-width="3" stroke-linecap="round" stroke-linejoin="round" stroke="rgb(41.567993%, 74.118042%, 27.058411%)" stroke-opacity="1" stroke-miterlimit="10" d="M 96.480469 66.177344 L 132.480469 66.177344 L 132.480469 99.919531 " transform="matrix(1, 0, 0, -1, 0, 248.4)"/>
<path fill="none" stroke-width="3" stroke-linecap="round" stroke-linejoin="round" stroke="rgb(34.509277%, 76.863098%, 74.902344%)" stroke-opacity="1" stroke-miterlimit="10" d="M 132.480469 99.919531 L 96.480469 99.919531 L 96.480469 137.927344 " transform="matrix(1, 0, 0, -1, 0, 248.4)"/>
<path fill="none" stroke-width="3" stroke-linecap="round" stroke-linejoin="round" stroke="rgb(27.058411%, 32.940674%, 64.706421%)" stroke-opacity="1" stroke-miterlimit="10" d="M 96.480469 137.927344 L 132.480469 137.927344 L 132.480469 174.177344 L 96.480469 174.177344 " transform="matrix(1, 0, 0, -1, 0, 248.4)"/>
<path fill="none" stroke-width="3" stroke-linecap="round" stroke-linejoin="round" stroke="rgb(78.039551%, 12.548828%, 18.03894%)" stroke-opacity="1" stroke-miterlimit="10" d="M 96.480469 174.177344 L 60.480469 174.177344 " transform="matrix(1, 0, 0, -1, 0, 248.4)"/>
<path fill="none" stroke-width="3" stroke-linecap="round" stroke-linejoin="round" stroke="rgb(96.470642%, 54.902649%, 11.764526%)" stroke-opacity="1" stroke-miterlimit="10" d="M 60.480469 174.177344 L 60.480469 138.142188 L 24.480469 138.142188 L 24.480469 174.177344 " transform="matrix(1, 0, 0, -1, 0, 248.4)"/>
<path fill-rule="evenodd" fill="rgb(27.058411%, 32.940674%, 64.706421%)" fill-opacity="1" stroke-width="1" stroke-linecap="round" stroke-linejoin="round" stroke="rgb(13.725281%, 12.156677%, 12.548828%)" stroke-opacity="1" stroke-miterlimit="10" d="M 162.480469 48.177344 L 306.480469 48.177344 L 306.480469 192.177344 L 162.480469 192.177344 Z M 162.480469 48.177344 " transform="matrix(1, 0, 0, -1, 0, 248.4)"/>
<path fill-rule="evenodd" fill="rgb(96.470642%, 54.902649%, 11.764526%)" fill-opacity="1" stroke-width="0.45" stroke-linecap="round" stroke-linejoin="round" stroke="rgb(96.470642%, 54.902649%, 11.764526%)" stroke-opacity="1" stroke-miterlimit="10" d="M 184.714844 185.0875 C 193.558594 185.0875 200.742188 177.907813 200.742188 169.060156 C 200.742188 160.2125 193.558594 153.028906 184.714844 153.028906 C 175.867188 153.028906 168.683594 160.2125 168.683594 169.060156 C 168.683594 177.907813 175.867188 185.0875 184.714844 185.0875 Z M 184.714844 185.0875 " transform="matrix(1, 0, 0, -1, 0, 248.4)"/>
<path fill-rule="evenodd" fill="rgb(41.567993%, 74.118042%, 27.058411%)" fill-opacity="1" stroke-width="0.45" stroke-linecap="round" stroke-linejoin="round" stroke="rgb(41.567993%, 74.118042%, 27.058411%)" stroke-opacity="1" stroke-miterlimit="10" d="M 225.804688 133.040625 C 228.601562 133.040625 230.871094 130.767188 230.871094 127.970313 C 230.871094 125.169531 228.601562 122.9 225.804688 122.9 C 223.003906 122.9 220.734375 125.169531 220.734375 127.970313 C 220.734375 130.767188 223.003906 133.040625 225.804688 133.040625 Z M 225.804688 133.040625 " transform="matrix(1, 0, 0, -1, 0, 248.4)"/>
<path fill-rule="evenodd" fill="rgb(78.039551%, 12.548828%, 18.03894%)" fill-opacity="1" stroke-width="0.45" stroke-linecap="round" stroke-linejoin="round" stroke="rgb(78.039551%, 12.548828%, 18.03894%)" stroke-opacity="1" stroke-miterlimit="10" d="M 254.847656 174.950781 C 260.898438 174.950781 265.808594 170.040625 265.808594 163.989844 C 265.808594 157.939063 260.898438 153.028906 254.847656 153.028906 C 248.800781 153.028906 243.890625 157.939063 243.890625 163.989844 C 243.890625 170.040625 248.800781 174.950781 254.847656 174.950781 Z M 254.847656 174.950781 " transform="matrix(1, 0, 0, -1, 0, 248.4)"/>
<path fill-rule="evenodd" fill="rgb(34.509277%, 76.863098%, 74.902344%)" fill-opacity="1" stroke-width="0.45" stroke-linecap="round" stroke-linejoin="round" stroke="rgb(34.509277%, 76.863098%, 74.902344%)" stroke-opacity="1" stroke-miterlimit="10" d="M 214.84375 100.220313 C 218.09375 100.220313 220.734375 97.579688 220.734375 94.329688 C 220.734375 91.079688 218.09375 88.439063 214.84375 88.439063 C 211.59375 88.439063 208.953125 91.079688 208.953125 94.329688 C 208.953125 97.579688 211.59375 100.220313 214.84375 100.220313 Z M 214.84375 100.220313 " transform="matrix(1, 0, 0, -1, 0, 248.4)"/>
<path fill-rule="evenodd" fill="rgb(80.784607%, 86.274719%, 15.686035%)" fill-opacity="1" stroke-width="0.45" stroke-linecap="round" stroke-linejoin="round" stroke="rgb(80.784607%, 86.274719%, 15.686035%)" stroke-opacity="1" stroke-miterlimit="10" d="M 269.640625 94.329688 C 279.726562 94.329688 287.914062 86.138281 287.914062 76.052344 C 287.914062 65.966406 279.726562 57.775 269.640625 57.775 C 259.550781 57.775 251.359375 65.966406 251.359375 76.052344 C 251.359375 86.138281 259.550781 94.329688 269.640625 94.329688 Z M 269.640625 94.329688 " transform="matrix(1, 0, 0, -1, 0, 248.4)"/>
<path fill-rule="evenodd" fill="rgb(90.588379%, 90.98053%, 91.372681%)" fill-opacity="1" stroke-width="1" stroke-linecap="round" stroke-linejoin="round" stroke="rgb(13.725281%, 12.156677%, 12.548828%)" stroke-opacity="1" stroke-miterlimit="10" d="M 318.480469 48.177344 L 462.480469 48.177344 L 462.480469 192.177344 L 318.480469 192.177344 Z M 318.480469 48.177344 " transform="matrix(1, 0, 0, -1, 0, 248.4)"/>
<path fill-rule="evenodd" fill="rgb(2.352905%, 10.195923%, 20.783997%)" fill-opacity="1" stroke-width="0.45" stroke-linecap="round" stroke-linejoin="round" stroke="rgb(13.725281%, 12.156677%, 12.548828%)" stroke-opacity="1" stroke-miterlimit="10" d="M 318.480469 156.177344 L 354.480469 156.177344 L 354.480469 192.177344 L 318.480469 192.177344 Z M 318.480469 156.177344 " transform="matrix(1, 0, 0, -1, 0, 248.4)"/>
<path fill-rule="evenodd" fill="rgb(2.745056%, 10.980225%, 22.3526%)" fill-opacity="1" stroke-width="0.45" stroke-linecap="round" stroke-linejoin="round" stroke="rgb(13.725281%, 12.156677%, 12.548828%)" stroke-opacity="1" stroke-miterlimit="10" d="M 354.480469 156.177344 L 390.480469 156.177344 L 390.480469 192.177344 L 354.480469 192.177344 Z M 354.480469 156.177344 " transform="matrix(1, 0, 0, -1, 0, 248.4)"/>
<path fill-rule="evenodd" fill="rgb(7.450867%, 15.293884%, 30.195618%)" fill-opacity="1" stroke-width="0.45" stroke-linecap="round" stroke-linejoin="round" stroke="rgb(13.725281%, 12.156677%, 12.548828%)" stroke-opacity="1" stroke-miterlimit="10" d="M 390.480469 156.177344 L 426.480469 156.177344 L 426.480469 192.177344 L 390.480469 192.177344 Z M 390.480469 156.177344 " transform="matrix(1, 0, 0, -1, 0, 248.4)"/>
<path fill-rule="evenodd" fill="rgb(12.548828%, 22.744751%, 43.920898%)" fill-opacity="1" stroke-width="0.45" stroke-linecap="round" stroke-linejoin="round" stroke="rgb(13.725281%, 12.156677%, 12.548828%)" stroke-opacity="1" stroke-miterlimit="10" d="M 426.480469 156.177344 L 462.480469 156.177344 L 462.480469 192.177344 L 426.480469 192.177344 Z M 426.480469 156.177344 " transform="matrix(1, 0, 0, -1, 0, 248.4)"/>
<path fill-rule="evenodd" fill="rgb(15.293884%, 35.293579%, 66.275024%)" fill-opacity="1" stroke-width="0.45" stroke-linecap="round" stroke-linejoin="round" stroke="rgb(13.725281%, 12.156677%, 12.548828%)" stroke-opacity="1" stroke-miterlimit="10" d="M 318.480469 120.177344 L 354.480469 120.177344 L 354.480469 156.177344 L 318.480469 156.177344 Z M 318.480469 120.177344 " transform="matrix(1, 0, 0, -1, 0, 248.4)"/>
<path fill-rule="evenodd" fill="rgb(5.097961%, 31.764221%, 64.31427%)" fill-opacity="1" stroke-width="0.45" stroke-linecap="round" stroke-linejoin="round" stroke="rgb(13.725281%, 12.156677%, 12.548828%)" stroke-opacity="1" stroke-miterlimit="10" d="M 354.480469 120.177344 L 390.480469 120.177344 L 390.480469 156.177344 L 354.480469 156.177344 Z M 354.480469 120.177344 " transform="matrix(1, 0, 0, -1, 0, 248.4)"/>
<path fill-rule="evenodd" fill="rgb(9.803772%, 27.842712%, 56.079102%)" fill-opacity="1" stroke-width="0.45" stroke-linecap="round" stroke-linejoin="round" stroke="rgb(13.725281%, 12.156677%, 12.548828%)" stroke-opacity="1" stroke-miterlimit="10" d="M 390.480469 120.177344 L 426.480469 120.177344 L 426.480469 156.177344 L 390.480469 156.177344 Z M 390.480469 120.177344 " transform="matrix(1, 0, 0, -1, 0, 248.4)"/>
<path fill-rule="evenodd" fill="rgb(11.372375%, 26.66626%, 53.334045%)" fill-opacity="1" stroke-width="0.45" stroke-linecap="round" stroke-linejoin="round" stroke="rgb(13.725281%, 12.156677%, 12.548828%)" stroke-opacity="1" stroke-miterlimit="10" d="M 426.480469 120.177344 L 462.480469 120.177344 L 462.480469 156.177344 L 426.480469 156.177344 Z M 426.480469 120.177344 " transform="matrix(1, 0, 0, -1, 0, 248.4)"/>
<path fill-rule="evenodd" fill="rgb(21.176147%, 39.607239%, 69.020081%)" fill-opacity="1" stroke-width="0.45" stroke-linecap="round" stroke-linejoin="round" stroke="rgb(13.725281%, 12.156677%, 12.548828%)" stroke-opacity="1" stroke-miterlimit="10" d="M 318.480469 84.177344 L 354.480469 84.177344 L 354.480469 120.177344 L 318.480469 120.177344 Z M 318.480469 84.177344 " transform="matrix(1, 0, 0, -1, 0, 248.4)"/>
<path fill-rule="evenodd" fill="rgb(23.136902%, 42.352295%, 70.588684%)" fill-opacity="1" stroke-width="0.45" stroke-linecap="round" stroke-linejoin="round" stroke="rgb(13.725281%, 12.156677%, 12.548828%)" stroke-opacity="1" stroke-miterlimit="10" d="M 354.480469 84.177344 L 390.480469 84.177344 L 390.480469 120.177344 L 354.480469 120.177344 Z M 354.480469 84.177344 " transform="matrix(1, 0, 0, -1, 0, 248.4)"/>
<path fill-rule="evenodd" fill="rgb(26.274109%, 44.7052%, 72.157288%)" fill-opacity="1" stroke-width="0.45" stroke-linecap="round" stroke-linejoin="round" stroke="rgb(13.725281%, 12.156677%, 12.548828%)" stroke-opacity="1" stroke-miterlimit="10" d="M 390.480469 84.177344 L 426.480469 84.177344 L 426.480469 120.177344 L 390.480469 120.177344 Z M 390.480469 84.177344 " transform="matrix(1, 0, 0, -1, 0, 248.4)"/>
<path fill-rule="evenodd" fill="rgb(26.274109%, 44.7052%, 72.157288%)" fill-opacity="1" stroke-width="0.45" stroke-linecap="round" stroke-linejoin="round" stroke="rgb(13.725281%, 12.156677%, 12.548828%)" stroke-opacity="1" stroke-miterlimit="10" d="M 426.480469 84.177344 L 462.480469 84.177344 L 462.480469 120.177344 L 426.480469 120.177344 Z M 426.480469 84.177344 " transform="matrix(1, 0, 0, -1, 0, 248.4)"/>
<path fill-rule="evenodd" fill="rgb(73.33374%, 83.921814%, 94.117737%)" fill-opacity="1" stroke-width="0.45" stroke-linecap="round" stroke-linejoin="round" stroke="rgb(13.725281%, 12.156677%, 12.548828%)" stroke-opacity="1" stroke-miterlimit="10" d="M 318.480469 48.177344 L 354.480469 48.177344 L 354.480469 84.177344 L 318.480469 84.177344 Z M 318.480469 48.177344 " transform="matrix(1, 0, 0, -1, 0, 248.4)"/>
<path fill-rule="evenodd" fill="rgb(57.255554%, 73.725891%, 89.411926%)" fill-opacity="1" stroke-width="0.45" stroke-linecap="round" stroke-linejoin="round" stroke="rgb(13.725281%, 12.156677%, 12.548828%)" stroke-opacity="1" stroke-miterlimit="10" d="M 354.480469 48.177344 L 390.480469 48.177344 L 390.480469 84.177344 L 354.480469 84.177344 Z M 354.480469 48.177344 " transform="matrix(1, 0, 0, -1, 0, 248.4)"/>
<path fill-rule="evenodd" fill="rgb(41.960144%, 61.569214%, 83.137512%)" fill-opacity="1" stroke-width="0.45" stroke-linecap="round" stroke-linejoin="round" stroke="rgb(13.725281%, 12.156677%, 12.548828%)" stroke-opacity="1" stroke-miterlimit="10" d="M 390.480469 48.177344 L 426.480469 48.177344 L 426.480469 84.177344 L 390.480469 84.177344 Z M 390.480469 48.177344 " transform="matrix(1, 0, 0, -1, 0, 248.4)"/>
<path fill-rule="evenodd" fill="rgb(32.940674%, 52.941895%, 77.6474%)" fill-opacity="1" stroke-width="0.45" stroke-linecap="round" stroke-linejoin="round" stroke="rgb(13.725281%, 12.156677%, 12.548828%)" stroke-opacity="1" stroke-miterlimit="10" d="M 426.480469 48.177344 L 462.480469 48.177344 L 462.480469 84.177344 L 426.480469 84.177344 Z M 426.480469 48.177344 " transform="matrix(1, 0, 0, -1, 0, 248.4)"/>
<g fill="rgb(13.725281%, 12.156677%, 12.548828%)" fill-opacity="1">
<use xlink:href="#glyph-2-0" x="43.8521" y="49.916"/>
</g>
<g fill="rgb(13.725281%, 12.156677%, 12.548828%)" fill-opacity="1">
<use xlink:href="#glyph-2-1" x="50.5211" y="49.916"/>
</g>
<g fill="rgb(13.725281%, 12.156677%, 12.548828%)" fill-opacity="1">
<use xlink:href="#glyph-2-2" x="56.6291" y="49.916"/>
</g>
<g fill="rgb(13.725281%, 12.156677%, 12.548828%)" fill-opacity="1">
<use xlink:href="#glyph-2-3" x="62.1911" y="49.916"/>
</g>
<g fill="rgb(13.725281%, 12.156677%, 12.548828%)" fill-opacity="1">
<use xlink:href="#glyph-2-4" x="65.5221" y="49.916"/>
</g>
<g fill="rgb(13.725281%, 12.156677%, 12.548828%)" fill-opacity="1">
<use xlink:href="#glyph-2-2" x="68.3001" y="49.916"/>
</g>
<g fill="rgb(13.725281%, 12.156677%, 12.548828%)" fill-opacity="1">
<use xlink:href="#glyph-2-5" x="73.8621" y="49.916"/>
</g>
<g fill="rgb(13.725281%, 12.156677%, 12.548828%)" fill-opacity="1">
<use xlink:href="#glyph-2-6" x="76.6401" y="49.916"/>
</g>
<g fill="rgb(13.725281%, 12.156677%, 12.548828%)" fill-opacity="1">
<use xlink:href="#glyph-2-7" x="79.4181" y="49.916"/>
</g>
<g fill="rgb(13.725281%, 12.156677%, 12.548828%)" fill-opacity="1">
<use xlink:href="#glyph-2-2" x="85.5261" y="49.916"/>
</g>
<g fill="rgb(13.725281%, 12.156677%, 12.548828%)" fill-opacity="1">
<use xlink:href="#glyph-2-8" x="91.0881" y="49.916"/>
</g>
<g fill="rgb(13.725281%, 12.156677%, 12.548828%)" fill-opacity="1">
<use xlink:href="#glyph-2-9" x="96.6501" y="49.916"/>
</g>
<g fill="rgb(13.725281%, 12.156677%, 12.548828%)" fill-opacity="1">
<use xlink:href="#glyph-2-10" x="102.7581" y="49.916"/>
</g>
<g fill="rgb(13.725281%, 12.156677%, 12.548828%)" fill-opacity="1">
<use xlink:href="#glyph-2-3" x="108.8661" y="49.916"/>
</g>
<g fill="rgb(13.725281%, 12.156677%, 12.548828%)" fill-opacity="1">
<use xlink:href="#glyph-2-0" x="200.763" y="49.916"/>
</g>
<g fill="rgb(13.725281%, 12.156677%, 12.548828%)" fill-opacity="1">
<use xlink:href="#glyph-2-1" x="207.432" y="49.916"/>
</g>
<g fill="rgb(13.725281%, 12.156677%, 12.548828%)" fill-opacity="1">
<use xlink:href="#glyph-2-2" x="213.54" y="49.916"/>
</g>
<g fill="rgb(13.725281%, 12.156677%, 12.548828%)" fill-opacity="1">
<use xlink:href="#glyph-2-3" x="219.102" y="49.916"/>
</g>
<g fill="rgb(13.725281%, 12.156677%, 12.548828%)" fill-opacity="1">
<use xlink:href="#glyph-2-4" x="222.433" y="49.916"/>
</g>
<g fill="rgb(13.725281%, 12.156677%, 12.548828%)" fill-opacity="1">
<use xlink:href="#glyph-2-2" x="225.211" y="49.916"/>
</g>
<g fill="rgb(13.725281%, 12.156677%, 12.548828%)" fill-opacity="1">
<use xlink:href="#glyph-2-5" x="230.773" y="49.916"/>
</g>
<g fill="rgb(13.725281%, 12.156677%, 12.548828%)" fill-opacity="1">
<use xlink:href="#glyph-2-6" x="233.551" y="49.916"/>
</g>
<g fill="rgb(13.725281%, 12.156677%, 12.548828%)" fill-opacity="1">
<use xlink:href="#glyph-2-7" x="236.329" y="49.916"/>
</g>
<g fill="rgb(13.725281%, 12.156677%, 12.548828%)" fill-opacity="1">
<use xlink:href="#glyph-2-2" x="242.437" y="49.916"/>
</g>
<g fill="rgb(13.725281%, 12.156677%, 12.548828%)" fill-opacity="1">
<use xlink:href="#glyph-2-8" x="247.999" y="49.916"/>
</g>
<g fill="rgb(13.725281%, 12.156677%, 12.548828%)" fill-opacity="1">
<use xlink:href="#glyph-2-9" x="253.561" y="49.916"/>
</g>
<g fill="rgb(13.725281%, 12.156677%, 12.548828%)" fill-opacity="1">
<use xlink:href="#glyph-2-10" x="259.669" y="49.916"/>
</g>
<g fill="rgb(13.725281%, 12.156677%, 12.548828%)" fill-opacity="1">
<use xlink:href="#glyph-2-3" x="265.777" y="49.916"/>
</g>
<g fill="rgb(13.725281%, 12.156677%, 12.548828%)" fill-opacity="1">
<use xlink:href="#glyph-2-0" x="356.763" y="49.916"/>
</g>
<g fill="rgb(13.725281%, 12.156677%, 12.548828%)" fill-opacity="1">
<use xlink:href="#glyph-2-1" x="363.432" y="49.916"/>
</g>
<g fill="rgb(13.725281%, 12.156677%, 12.548828%)" fill-opacity="1">
<use xlink:href="#glyph-2-2" x="369.54" y="49.916"/>
</g>
<g fill="rgb(13.725281%, 12.156677%, 12.548828%)" fill-opacity="1">
<use xlink:href="#glyph-2-3" x="375.102" y="49.916"/>
</g>
<g fill="rgb(13.725281%, 12.156677%, 12.548828%)" fill-opacity="1">
<use xlink:href="#glyph-2-4" x="378.433" y="49.916"/>
</g>
<g fill="rgb(13.725281%, 12.156677%, 12.548828%)" fill-opacity="1">
<use xlink:href="#glyph-2-2" x="381.211" y="49.916"/>
</g>
<g fill="rgb(13.725281%, 12.156677%, 12.548828%)" fill-opacity="1">
<use xlink:href="#glyph-2-5" x="386.773" y="49.916"/>
</g>
<g fill="rgb(13.725281%, 12.156677%, 12.548828%)" fill-opacity="1">
<use xlink:href="#glyph-2-6" x="389.551" y="49.916"/>
</g>
<g fill="rgb(13.725281%, 12.156677%, 12.548828%)" fill-opacity="1">
<use xlink:href="#glyph-2-7" x="392.329" y="49.916"/>
</g>
<g fill="rgb(13.725281%, 12.156677%, 12.548828%)" fill-opacity="1">
<use xlink:href="#glyph-2-2" x="398.437" y="49.916"/>
</g>
<g fill="rgb(13.725281%, 12.156677%, 12.548828%)" fill-opacity="1">
<use xlink:href="#glyph-2-8" x="403.999" y="49.916"/>
</g>
<g fill="rgb(13.725281%, 12.156677%, 12.548828%)" fill-opacity="1">
<use xlink:href="#glyph-2-9" x="409.561" y="49.916"/>
</g>
<g fill="rgb(13.725281%, 12.156677%, 12.548828%)" fill-opacity="1">
<use xlink:href="#glyph-2-10" x="415.669" y="49.916"/>
</g>
<g fill="rgb(13.725281%, 12.156677%, 12.548828%)" fill-opacity="1">
<use xlink:href="#glyph-2-3" x="421.777" y="49.916"/>
</g>
<path fill="none" stroke-width="1" stroke-linecap="round" stroke-linejoin="round" stroke="rgb(2.745056%, 1.960754%, 1.568604%)" stroke-opacity="1" stroke-miterlimit="10" d="M 6.480469 5.142188 L 150.480469 5.142188 L 150.480469 30.11875 L 6.480469 30.11875 Z M 6.480469 5.142188 " transform="matrix(1, 0, 0, -1, 0, 248.4)"/>
<path fill-rule="evenodd" fill="rgb(80.784607%, 86.274719%, 15.686035%)" fill-opacity="1" stroke-width="1" stroke-linecap="round" stroke-linejoin="round" stroke="rgb(2.745056%, 1.960754%, 1.568604%)" stroke-opacity="1" stroke-miterlimit="10" d="M 6.480469 5.142188 L 25.101562 5.142188 L 25.101562 30.11875 L 6.480469 30.11875 Z M 6.480469 5.142188 " transform="matrix(1, 0, 0, -1, 0, 248.4)"/>
<path fill-rule="evenodd" fill="rgb(41.567993%, 74.118042%, 27.058411%)" fill-opacity="1" stroke-width="1" stroke-linecap="round" stroke-linejoin="round" stroke="rgb(2.745056%, 1.960754%, 1.568604%)" stroke-opacity="1" stroke-miterlimit="10" d="M 25.101562 5.142188 L 43.71875 5.142188 L 43.71875 30.11875 L 25.101562 30.11875 Z M 25.101562 5.142188 " transform="matrix(1, 0, 0, -1, 0, 248.4)"/>
<path fill-rule="evenodd" fill="rgb(34.509277%, 76.863098%, 74.902344%)" fill-opacity="1" stroke-width="1" stroke-linecap="round" stroke-linejoin="round" stroke="rgb(2.745056%, 1.960754%, 1.568604%)" stroke-opacity="1" stroke-miterlimit="10" d="M 43.71875 5.142188 L 76.292969 5.142188 L 76.292969 30.11875 L 43.71875 30.11875 Z M 43.71875 5.142188 " transform="matrix(1, 0, 0, -1, 0, 248.4)"/>
<path fill-rule="evenodd" fill="rgb(27.058411%, 32.940674%, 64.706421%)" fill-opacity="1" stroke-width="1" stroke-linecap="round" stroke-linejoin="round" stroke="rgb(2.745056%, 1.960754%, 1.568604%)" stroke-opacity="1" stroke-miterlimit="10" d="M 76.292969 5.142188 L 111.90625 5.142188 L 111.90625 30.11875 L 76.292969 30.11875 Z M 76.292969 5.142188 " transform="matrix(1, 0, 0, -1, 0, 248.4)"/>
<path fill-rule="evenodd" fill="rgb(78.039551%, 12.548828%, 18.03894%)" fill-opacity="1" stroke-width="1" stroke-linecap="round" stroke-linejoin="round" stroke="rgb(2.745056%, 1.960754%, 1.568604%)" stroke-opacity="1" stroke-miterlimit="10" d="M 111.902344 5.142188 L 122.988281 5.142188 L 122.988281 30.11875 L 111.902344 30.11875 Z M 111.902344 5.142188 " transform="matrix(1, 0, 0, -1, 0, 248.4)"/>
<path fill-rule="evenodd" fill="rgb(96.470642%, 54.902649%, 11.764526%)" fill-opacity="1" stroke-width="1" stroke-linecap="round" stroke-linejoin="round" stroke="rgb(2.745056%, 1.960754%, 1.568604%)" stroke-opacity="1" stroke-miterlimit="10" d="M 122.988281 5.142188 L 150.464844 5.142188 L 150.464844 30.11875 L 122.988281 30.11875 Z M 122.988281 5.142188 " transform="matrix(1, 0, 0, -1, 0, 248.4)"/>
<g fill="rgb(13.725281%, 12.156677%, 12.548828%)" fill-opacity="1">
<use xlink:href="#glyph-2-11" x="43.2979" y="213.1801"/>
</g>
<g fill="rgb(13.725281%, 12.156677%, 12.548828%)" fill-opacity="1">
<use xlink:href="#glyph-2-12" x="51.0759" y="213.1801"/>
</g>
<g fill="rgb(13.725281%, 12.156677%, 12.548828%)" fill-opacity="1">
<use xlink:href="#glyph-2-13" x="57.1839" y="213.1801"/>
</g>
<g fill="rgb(13.725281%, 12.156677%, 12.548828%)" fill-opacity="1">
<use xlink:href="#glyph-2-14" x="60.5149" y="213.1801"/>
</g>
<g fill="rgb(13.725281%, 12.156677%, 12.548828%)" fill-opacity="1">
<use xlink:href="#glyph-2-4" x="66.6229" y="213.1801"/>
</g>
<g fill="rgb(13.725281%, 12.156677%, 12.548828%)" fill-opacity="1">
<use xlink:href="#glyph-2-15" x="69.4009" y="213.1801"/>
</g>
<g fill="rgb(13.725281%, 12.156677%, 12.548828%)" fill-opacity="1">
<use xlink:href="#glyph-2-16" x="74.9629" y="213.1801"/>
</g>
<g fill="rgb(13.725281%, 12.156677%, 12.548828%)" fill-opacity="1">
<use xlink:href="#glyph-2-6" x="80.5249" y="213.1801"/>
</g>
<g fill="rgb(13.725281%, 12.156677%, 12.548828%)" fill-opacity="1">
<use xlink:href="#glyph-2-5" x="83.3029" y="213.1801"/>
</g>
<g fill="rgb(13.725281%, 12.156677%, 12.548828%)" fill-opacity="1">
<use xlink:href="#glyph-2-2" x="86.0809" y="213.1801"/>
</g>
<g fill="rgb(13.725281%, 12.156677%, 12.548828%)" fill-opacity="1">
<use xlink:href="#glyph-2-8" x="91.6429" y="213.1801"/>
</g>
<g fill="rgb(13.725281%, 12.156677%, 12.548828%)" fill-opacity="1">
<use xlink:href="#glyph-2-9" x="97.2049" y="213.1801"/>
</g>
<g fill="rgb(13.725281%, 12.156677%, 12.548828%)" fill-opacity="1">
<use xlink:href="#glyph-2-10" x="103.3129" y="213.1801"/>
</g>
<g fill="rgb(13.725281%, 12.156677%, 12.548828%)" fill-opacity="1">
<use xlink:href="#glyph-2-3" x="109.4209" y="213.1801"/>
</g>
<path fill="none" stroke-width="1" stroke-linecap="round" stroke-linejoin="round" stroke="rgb(2.745056%, 1.960754%, 1.568604%)" stroke-opacity="1" stroke-miterlimit="10" d="M 162.9375 5.142188 L 306.9375 5.142188 L 306.9375 30.11875 L 162.9375 30.11875 Z M 162.9375 5.142188 " transform="matrix(1, 0, 0, -1, 0, 248.4)"/>
<path fill-rule="evenodd" fill="rgb(96.470642%, 54.902649%, 11.764526%)" fill-opacity="1" stroke-width="1" stroke-linecap="round" stroke-linejoin="round" stroke="rgb(2.745056%, 1.960754%, 1.568604%)" stroke-opacity="1" stroke-miterlimit="10" d="M 204.707031 5.142188 L 213.398438 5.142188 L 213.398438 30.11875 L 204.707031 30.11875 Z M 204.707031 5.142188 " transform="matrix(1, 0, 0, -1, 0, 248.4)"/>
<path fill-rule="evenodd" fill="rgb(41.567993%, 74.118042%, 27.058411%)" fill-opacity="1" stroke-width="1" stroke-linecap="round" stroke-linejoin="round" stroke="rgb(2.745056%, 1.960754%, 1.568604%)" stroke-opacity="1" stroke-miterlimit="10" d="M 216.941406 5.142188 L 220.113281 5.142188 L 220.113281 30.11875 L 216.941406 30.11875 Z M 216.941406 5.142188 " transform="matrix(1, 0, 0, -1, 0, 248.4)"/>
<path fill-rule="evenodd" fill="rgb(34.509277%, 76.863098%, 74.902344%)" fill-opacity="1" stroke-width="1" stroke-linecap="round" stroke-linejoin="round" stroke="rgb(2.745056%, 1.960754%, 1.568604%)" stroke-opacity="1" stroke-miterlimit="10" d="M 213.398438 5.142188 L 216.941406 5.142188 L 216.941406 30.11875 L 213.398438 30.11875 Z M 213.398438 5.142188 " transform="matrix(1, 0, 0, -1, 0, 248.4)"/>
<path fill-rule="evenodd" fill="rgb(80.784607%, 86.274719%, 15.686035%)" fill-opacity="1" stroke-width="1" stroke-linecap="round" stroke-linejoin="round" stroke="rgb(2.745056%, 1.960754%, 1.568604%)" stroke-opacity="1" stroke-miterlimit="10" d="M 163.128906 5.142188 L 193.621094 5.142188 L 193.621094 30.11875 L 163.128906 30.11875 Z M 163.128906 5.142188 " transform="matrix(1, 0, 0, -1, 0, 248.4)"/>
<path fill-rule="evenodd" fill="rgb(78.039551%, 12.548828%, 18.03894%)" fill-opacity="1" stroke-width="1" stroke-linecap="round" stroke-linejoin="round" stroke="rgb(2.745056%, 1.960754%, 1.568604%)" stroke-opacity="1" stroke-miterlimit="10" d="M 193.621094 5.142188 L 204.707031 5.142188 L 204.707031 30.11875 L 193.621094 30.11875 Z M 193.621094 5.142188 " transform="matrix(1, 0, 0, -1, 0, 248.4)"/>
<path fill-rule="evenodd" fill="rgb(27.058411%, 32.940674%, 64.706421%)" fill-opacity="1" stroke-width="1" stroke-linecap="round" stroke-linejoin="round" stroke="rgb(2.745056%, 1.960754%, 1.568604%)" stroke-opacity="1" stroke-miterlimit="10" d="M 219.921875 5.142188 L 306.921875 5.142188 L 306.921875 30.11875 L 219.921875 30.11875 Z M 219.921875 5.142188 " transform="matrix(1, 0, 0, -1, 0, 248.4)"/>
<g fill="rgb(13.725281%, 12.156677%, 12.548828%)" fill-opacity="1">
<use xlink:href="#glyph-2-11" x="199.753" y="213.1801"/>
</g>
<g fill="rgb(13.725281%, 12.156677%, 12.548828%)" fill-opacity="1">
<use xlink:href="#glyph-2-12" x="207.531" y="213.1801"/>
</g>
<g fill="rgb(13.725281%, 12.156677%, 12.548828%)" fill-opacity="1">
<use xlink:href="#glyph-2-13" x="213.639" y="213.1801"/>
</g>
<g fill="rgb(13.725281%, 12.156677%, 12.548828%)" fill-opacity="1">
<use xlink:href="#glyph-2-14" x="216.97" y="213.1801"/>
</g>
<g fill="rgb(13.725281%, 12.156677%, 12.548828%)" fill-opacity="1">
<use xlink:href="#glyph-2-4" x="223.078" y="213.1801"/>
</g>
<g fill="rgb(13.725281%, 12.156677%, 12.548828%)" fill-opacity="1">
<use xlink:href="#glyph-2-15" x="225.856" y="213.1801"/>
</g>
<g fill="rgb(13.725281%, 12.156677%, 12.548828%)" fill-opacity="1">
<use xlink:href="#glyph-2-16" x="231.418" y="213.1801"/>
</g>
<g fill="rgb(13.725281%, 12.156677%, 12.548828%)" fill-opacity="1">
<use xlink:href="#glyph-2-6" x="236.98" y="213.1801"/>
</g>
<g fill="rgb(13.725281%, 12.156677%, 12.548828%)" fill-opacity="1">
<use xlink:href="#glyph-2-5" x="239.758" y="213.1801"/>
</g>
<g fill="rgb(13.725281%, 12.156677%, 12.548828%)" fill-opacity="1">
<use xlink:href="#glyph-2-2" x="242.536" y="213.1801"/>
</g>
<g fill="rgb(13.725281%, 12.156677%, 12.548828%)" fill-opacity="1">
<use xlink:href="#glyph-2-8" x="248.098" y="213.1801"/>
</g>
<g fill="rgb(13.725281%, 12.156677%, 12.548828%)" fill-opacity="1">
<use xlink:href="#glyph-2-9" x="253.66" y="213.1801"/>
</g>
<g fill="rgb(13.725281%, 12.156677%, 12.548828%)" fill-opacity="1">
<use xlink:href="#glyph-2-10" x="259.768" y="213.1801"/>
</g>
<g fill="rgb(13.725281%, 12.156677%, 12.548828%)" fill-opacity="1">
<use xlink:href="#glyph-2-3" x="265.876" y="213.1801"/>
</g>
<path fill="none" stroke-width="1" stroke-linecap="round" stroke-linejoin="round" stroke="rgb(2.745056%, 1.960754%, 1.568604%)" stroke-opacity="1" stroke-miterlimit="10" d="M 318.9375 5.142188 L 462.9375 5.142188 L 462.9375 30.11875 L 318.9375 30.11875 Z M 318.9375 5.142188 " transform="matrix(1, 0, 0, -1, 0, 248.4)"/>
<path fill-rule="evenodd" fill="rgb(2.352905%, 10.195923%, 20.783997%)" fill-opacity="1" stroke-width="1" stroke-linecap="round" stroke-linejoin="round" stroke="rgb(2.745056%, 1.960754%, 1.568604%)" stroke-opacity="1" stroke-miterlimit="10" d="M 318.9375 5.142188 L 324.128906 5.142188 L 324.128906 30.11875 L 318.9375 30.11875 Z M 318.9375 5.142188 " transform="matrix(1, 0, 0, -1, 0, 248.4)"/>
<path fill-rule="evenodd" fill="rgb(73.33374%, 83.921814%, 94.117737%)" fill-opacity="1" stroke-width="1" stroke-linecap="round" stroke-linejoin="round" stroke="rgb(2.745056%, 1.960754%, 1.568604%)" stroke-opacity="1" stroke-miterlimit="10" d="M 324.128906 5.142188 L 331.328125 5.142188 L 331.328125 30.11875 L 324.128906 30.11875 Z M 324.128906 5.142188 " transform="matrix(1, 0, 0, -1, 0, 248.4)"/>
<path fill-rule="evenodd" fill="rgb(32.940674%, 52.941895%, 77.6474%)" fill-opacity="1" stroke-width="1" stroke-linecap="round" stroke-linejoin="round" stroke="rgb(2.745056%, 1.960754%, 1.568604%)" stroke-opacity="1" stroke-miterlimit="10" d="M 331.328125 5.142188 L 336.746094 5.142188 L 336.746094 30.11875 L 331.328125 30.11875 Z M 331.328125 5.142188 " transform="matrix(1, 0, 0, -1, 0, 248.4)"/>
<path fill-rule="evenodd" fill="rgb(9.803772%, 27.842712%, 56.079102%)" fill-opacity="1" stroke-width="1" stroke-linecap="round" stroke-linejoin="round" stroke="rgb(2.745056%, 1.960754%, 1.568604%)" stroke-opacity="1" stroke-miterlimit="10" d="M 336.746094 5.142188 L 347.738281 5.142188 L 347.738281 30.11875 L 336.746094 30.11875 Z M 336.746094 5.142188 " transform="matrix(1, 0, 0, -1, 0, 248.4)"/>
<path fill-rule="evenodd" fill="rgb(41.960144%, 61.569214%, 83.137512%)" fill-opacity="1" stroke-width="1" stroke-linecap="round" stroke-linejoin="round" stroke="rgb(2.745056%, 1.960754%, 1.568604%)" stroke-opacity="1" stroke-miterlimit="10" d="M 347.738281 5.142188 L 352.929688 5.142188 L 352.929688 30.11875 L 347.738281 30.11875 Z M 347.738281 5.142188 " transform="matrix(1, 0, 0, -1, 0, 248.4)"/>
<path fill-rule="evenodd" fill="rgb(12.548828%, 22.744751%, 43.920898%)" fill-opacity="1" stroke-width="1" stroke-linecap="round" stroke-linejoin="round" stroke="rgb(2.745056%, 1.960754%, 1.568604%)" stroke-opacity="1" stroke-miterlimit="10" d="M 352.933594 5.142188 L 358.125 5.142188 L 358.125 30.11875 L 352.933594 30.11875 Z M 352.933594 5.142188 " transform="matrix(1, 0, 0, -1, 0, 248.4)"/>
<path fill-rule="evenodd" fill="rgb(57.255554%, 73.725891%, 89.411926%)" fill-opacity="1" stroke-width="1" stroke-linecap="round" stroke-linejoin="round" stroke="rgb(2.745056%, 1.960754%, 1.568604%)" stroke-opacity="1" stroke-miterlimit="10" d="M 358.125 5.142188 L 363.320312 5.142188 L 363.320312 30.11875 L 358.125 30.11875 Z M 358.125 5.142188 " transform="matrix(1, 0, 0, -1, 0, 248.4)"/>
<path fill-rule="evenodd" fill="rgb(7.450867%, 15.293884%, 30.195618%)" fill-opacity="1" stroke-width="1" stroke-linecap="round" stroke-linejoin="round" stroke="rgb(2.745056%, 1.960754%, 1.568604%)" stroke-opacity="1" stroke-miterlimit="10" d="M 363.320312 5.142188 L 374.605469 5.142188 L 374.605469 30.11875 L 363.320312 30.11875 Z M 363.320312 5.142188 " transform="matrix(1, 0, 0, -1, 0, 248.4)"/>
<path fill-rule="evenodd" fill="rgb(26.274109%, 44.7052%, 72.157288%)" fill-opacity="1" stroke-width="1" stroke-linecap="round" stroke-linejoin="round" stroke="rgb(2.745056%, 1.960754%, 1.568604%)" stroke-opacity="1" stroke-miterlimit="10" d="M 374.539062 5.142188 L 379.734375 5.142188 L 379.734375 30.11875 L 374.539062 30.11875 Z M 374.539062 5.142188 " transform="matrix(1, 0, 0, -1, 0, 248.4)"/>
<path fill-rule="evenodd" fill="rgb(2.745056%, 10.980225%, 22.3526%)" fill-opacity="1" stroke-width="1" stroke-linecap="round" stroke-linejoin="round" stroke="rgb(2.745056%, 1.960754%, 1.568604%)" stroke-opacity="1" stroke-miterlimit="10" d="M 379.734375 5.142188 L 391.269531 5.142188 L 391.269531 30.11875 L 379.734375 30.11875 Z M 379.734375 5.142188 " transform="matrix(1, 0, 0, -1, 0, 248.4)"/>
<path fill-rule="evenodd" fill="rgb(23.136902%, 42.352295%, 70.588684%)" fill-opacity="1" stroke-width="1" stroke-linecap="round" stroke-linejoin="round" stroke="rgb(2.745056%, 1.960754%, 1.568604%)" stroke-opacity="1" stroke-miterlimit="10" d="M 391.269531 5.142188 L 401.371094 5.142188 L 401.371094 30.11875 L 391.269531 30.11875 Z M 391.269531 5.142188 " transform="matrix(1, 0, 0, -1, 0, 248.4)"/>
<path fill-rule="evenodd" fill="rgb(5.097961%, 31.764221%, 64.31427%)" fill-opacity="1" stroke-width="1" stroke-linecap="round" stroke-linejoin="round" stroke="rgb(2.745056%, 1.960754%, 1.568604%)" stroke-opacity="1" stroke-miterlimit="10" d="M 401.367188 5.142188 L 415.035156 5.142188 L 415.035156 30.11875 L 401.367188 30.11875 Z M 401.367188 5.142188 " transform="matrix(1, 0, 0, -1, 0, 248.4)"/>
<path fill-rule="evenodd" fill="rgb(15.293884%, 35.293579%, 66.275024%)" fill-opacity="1" stroke-width="1" stroke-linecap="round" stroke-linejoin="round" stroke="rgb(2.745056%, 1.960754%, 1.568604%)" stroke-opacity="1" stroke-miterlimit="10" d="M 415.035156 5.142188 L 429.59375 5.142188 L 429.59375 30.11875 L 415.035156 30.11875 Z M 415.035156 5.142188 " transform="matrix(1, 0, 0, -1, 0, 248.4)"/>
<path fill-rule="evenodd" fill="rgb(26.274109%, 44.7052%, 72.157288%)" fill-opacity="1" stroke-width="1" stroke-linecap="round" stroke-linejoin="round" stroke="rgb(2.745056%, 1.960754%, 1.568604%)" stroke-opacity="1" stroke-miterlimit="10" d="M 429.59375 5.142188 L 442.035156 5.142188 L 442.035156 30.11875 L 429.59375 30.11875 Z M 429.59375 5.142188 " transform="matrix(1, 0, 0, -1, 0, 248.4)"/>
<path fill-rule="evenodd" fill="rgb(11.372375%, 26.66626%, 53.334045%)" fill-opacity="1" stroke-width="1" stroke-linecap="round" stroke-linejoin="round" stroke="rgb(2.745056%, 1.960754%, 1.568604%)" stroke-opacity="1" stroke-miterlimit="10" d="M 442.035156 5.142188 L 452.421875 5.142188 L 452.421875 30.11875 L 442.035156 30.11875 Z M 442.035156 5.142188 " transform="matrix(1, 0, 0, -1, 0, 248.4)"/>
<path fill-rule="evenodd" fill="rgb(21.176147%, 39.607239%, 69.020081%)" fill-opacity="1" stroke-width="1" stroke-linecap="round" stroke-linejoin="round" stroke="rgb(2.745056%, 1.960754%, 1.568604%)" stroke-opacity="1" stroke-miterlimit="10" d="M 452.421875 5.142188 L 462.933594 5.142188 L 462.933594 30.11875 L 452.421875 30.11875 Z M 452.421875 5.142188 " transform="matrix(1, 0, 0, -1, 0, 248.4)"/>
<g fill="rgb(13.725281%, 12.156677%, 12.548828%)" fill-opacity="1">
<use xlink:href="#glyph-2-11" x="355.753" y="213.1801"/>
</g>
<g fill="rgb(13.725281%, 12.156677%, 12.548828%)" fill-opacity="1">
<use xlink:href="#glyph-2-12" x="363.531" y="213.1801"/>
</g>
<g fill="rgb(13.725281%, 12.156677%, 12.548828%)" fill-opacity="1">
<use xlink:href="#glyph-2-13" x="369.639" y="213.1801"/>
</g>
<g fill="rgb(13.725281%, 12.156677%, 12.548828%)" fill-opacity="1">
<use xlink:href="#glyph-2-14" x="372.97" y="213.1801"/>
</g>
<g fill="rgb(13.725281%, 12.156677%, 12.548828%)" fill-opacity="1">
<use xlink:href="#glyph-2-4" x="379.078" y="213.1801"/>
</g>
<g fill="rgb(13.725281%, 12.156677%, 12.548828%)" fill-opacity="1">
<use xlink:href="#glyph-2-15" x="381.856" y="213.1801"/>
</g>
<g fill="rgb(13.725281%, 12.156677%, 12.548828%)" fill-opacity="1">
<use xlink:href="#glyph-2-16" x="387.418" y="213.1801"/>
</g>
<g fill="rgb(13.725281%, 12.156677%, 12.548828%)" fill-opacity="1">
<use xlink:href="#glyph-2-6" x="392.98" y="213.1801"/>
</g>
<g fill="rgb(13.725281%, 12.156677%, 12.548828%)" fill-opacity="1">
<use xlink:href="#glyph-2-5" x="395.758" y="213.1801"/>
</g>
<g fill="rgb(13.725281%, 12.156677%, 12.548828%)" fill-opacity="1">
<use xlink:href="#glyph-2-2" x="398.536" y="213.1801"/>
</g>
<g fill="rgb(13.725281%, 12.156677%, 12.548828%)" fill-opacity="1">
<use xlink:href="#glyph-2-8" x="404.098" y="213.1801"/>
</g>
<g fill="rgb(13.725281%, 12.156677%, 12.548828%)" fill-opacity="1">
<use xlink:href="#glyph-2-9" x="409.66" y="213.1801"/>
</g>
<g fill="rgb(13.725281%, 12.156677%, 12.548828%)" fill-opacity="1">
<use xlink:href="#glyph-2-10" x="415.768" y="213.1801"/>
</g>
<g fill="rgb(13.725281%, 12.156677%, 12.548828%)" fill-opacity="1">
<use xlink:href="#glyph-2-3" x="421.876" y="213.1801"/>
</g>
</svg>
